<svg xmlns="http://www.w3.org/2000/svg" xml:space="preserve" id="Layer_1" x="0" y="0" style="enable-background:new 0 0 198.1 23.7" version="1.1" viewBox="0 0 198.1 23.7"><style>.st0{fill:#e71324}</style><g id="Layer_1_00000183248954656351745560000004957184161861332099_"><path d="m115.1 5.88-3.4 9.1h-.05l-3.3-9.1h-3.26l5.1 12.68-1.9 4.3h3.04l6.92-16.98zM100.86 14.99c-.53.93-1.56 1.43-2.79 1.43-1.65 0-3.11-1.09-3.32-3.16h9.52c0-5.2-3.03-7.63-6.43-7.63-3.49 0-6.24 2.68-6.24 6.68 0 4.01 2.74 6.68 6.46 6.68 1.97 0 3.66-.59 4.9-2.16l-2.1-1.84zm-2.99-6.76c1.53 0 2.84 1.17 3.16 2.8h-6.32c.32-1.63 1.64-2.8 3.16-2.8M.68 16.08c.79 1.8 2.59 2.91 4.72 2.91 1.99 0 3.75-.98 4.6-2.54.37-.7.53-1.59.53-2.99V1.85H7.35v11.97c0 .94-.16 1.35-.41 1.66-.35.44-.9.7-1.53.7-1.25 0-1.82-.98-2.02-1.46L.68 16.08zM66.53 5.88v1.58h.05c.6-.95 1.89-1.82 3.6-1.82 2.34 0 4.42 1.54 4.42 5.22v7.89h-2.91V11.2c0-1.94-.85-2.92-2.21-2.92-1.72 0-2.94 1.31-2.94 3.18v7.29h-2.92V5.88h2.91zM80.89 5.88v1.58h.05c.6-.95 1.89-1.82 3.6-1.82 2.34 0 4.42 1.54 4.42 5.22v7.89h-2.91V11.2c0-1.94-.85-2.92-2.21-2.92-1.72 0-2.94 1.31-2.94 3.18v7.29h-2.92V5.88h2.91zM57.54 14.99c-.53.93-1.56 1.43-2.79 1.43-1.65 0-3.11-1.09-3.32-3.16h9.52c0-5.2-3.03-7.63-6.43-7.63-3.49 0-6.24 2.68-6.24 6.68 0 4.01 2.74 6.68 6.46 6.68 1.97 0 3.66-.59 4.9-2.16l-2.1-1.84zm-2.98-6.76c1.53 0 2.84 1.17 3.16 2.8H51.4c.32-1.63 1.63-2.8 3.16-2.8M28.03 14.02c-.76.89-2.26 2.16-4.67 2.16-1.6 0-3.08-.6-4.17-1.69-1.09-1.09-1.69-2.58-1.69-4.19 0-3.3 2.51-5.88 5.71-5.88 1.45 0 2.84.56 3.94 1.55l2.03-2.17c-1.58-1.42-3.68-2.2-5.95-2.2-2.51 0-4.79.89-6.43 2.52-1.6 1.6-2.48 3.79-2.48 6.17 0 2.37.89 4.57 2.51 6.17C18.47 18.1 20.76 19 23.27 19c2.8 0 5.31-1.1 6.93-3.03l-2.17-1.95zM44.64 3.62c-1.14-1.14-2.69-1.77-4.38-1.77h-6.27v16.93h3.16V14h3.09c1.7 0 3.26-.63 4.4-1.77 1.12-1.13 1.74-2.66 1.74-4.3.01-1.66-.61-3.18-1.74-4.31m-4.61 7.44h-2.87V4.78h2.87c1.8 0 3.16 1.35 3.16 3.14s-1.35 3.14-3.16 3.14M123.9 10.46c0-5.1 3.46-8.77 8.02-8.77s8.04 3.68 8.04 8.77c0 5.1-3.46 8.77-8.02 8.77-4.58 0-8.04-3.68-8.04-8.77m14.75 0c0-4.31-2.9-7.55-6.73-7.55-3.81 0-6.7 3.24-6.7 7.55s2.9 7.55 6.73 7.55 6.7-3.24 6.7-7.55M154.2 12.92c0 3.82-2.27 6.31-5.48 6.31-2.44 0-3.68-1.38-4.19-2.34v6.97h-1.24V6.81h1.05l.12 1.98h.14c.58-.9 1.83-2.21 4.12-2.21 3.24-.02 5.48 2.54 5.48 6.34m-1.25 0c0-3.15-1.78-5.22-4.31-5.22-2.49 0-4.12 2.04-4.12 5.22 0 3.12 1.63 5.16 4.12 5.16 2.55 0 4.31-2.04 4.31-5.16M158.14 16.75V7.87h-2.58V6.8h.88c1.37 0 1.8-.41 1.8-1.73V3.5h1.14v3.29h2.93v1.07h-2.93v8.67c0 1.05.51 1.58 1.49 1.58.39 0 .83-.09 1.22-.22v1.07c-.34.09-.8.24-1.46.24-1.69.03-2.49-.92-2.49-2.45M164.48 3.51c0-.54.44-.95.97-.95.57 0 1 .41 1 .95 0 .58-.44.98-1 .98-.52 0-.97-.39-.97-.98m.37 3.3h1.24v12.18h-1.24V6.81zM169.36 12.97c0-3.61 2.29-6.4 5.77-6.4 2.58 0 4.63 1.54 5.1 4.05h-1.27c-.34-1.56-1.7-2.9-3.82-2.9-2.7 0-4.53 2.29-4.53 5.27 0 2.83 1.66 5.11 4.51 5.11 2.12 0 3.39-1.12 3.93-2.83h1.27c-.54 2.41-2.49 3.97-5.19 3.97-3.63-.01-5.77-2.76-5.77-6.27M193.27 17.96v1.03h-.69c-1.15 0-1.7-.46-1.86-1.61-.88 1.09-2.36 1.86-4.07 1.86-2.07 0-3.78-1.05-3.78-3.39 0-2.29 1.8-3.53 4.29-3.75l3.49-.32v-.9c0-1.87-.95-3.19-3-3.19-1.95 0-2.75 1.17-3.04 2.7h-1.24c.24-2.19 1.75-3.82 4.27-3.82 2.64 0 4.27 1.61 4.27 4.19v6.14c0 .75.37 1.07 1.03 1.07h.33zm-2.61-5.13-3.22.29c-1.92.17-3.32 1.05-3.32 2.7 0 1.7 1.24 2.32 2.61 2.32 1.87 0 3.93-1.03 3.93-3.75v-1.56zM195.97 1.69h1.24v17.3h-1.24z" class="st0"/></g></svg>