<svg width="288" height="88" viewBox="0 0 288 88" fill="none" xmlns="http://www.w3.org/2000/svg">
<ellipse cx="47.8676" cy="23.2629" rx="20.9505" ry="20.8901" fill="#666666"/>
<ellipse cx="47.8674" cy="23.263" rx="14.4205" ry="14.3789" fill="#333333"/>
<ellipse cx="239.959" cy="23.2629" rx="20.9505" ry="20.8901" fill="#666666"/>
<ellipse cx="239.959" cy="23.263" rx="14.4205" ry="14.3789" fill="#333333"/>
<path fill-rule="evenodd" clip-rule="evenodd" d="M2.71135 25.4094C2.78795 25.5164 2.87527 25.6367 2.97332 25.7695C3.43418 26.3936 4.13169 27.2925 5.06729 28.3748C6.93928 30.5403 9.75948 33.4341 13.5388 36.3287C21.0932 42.1146 32.465 47.895 47.7783 47.895C62.6181 47.895 73.8989 42.1199 81.4864 36.3276C85.2808 33.4309 88.1447 30.5345 90.0569 28.3663C91.0125 27.2827 91.7292 26.3825 92.2043 25.7571C92.2995 25.6316 92.3851 25.5173 92.4609 25.4148C92.3917 25.316 92.3139 25.2064 92.2276 25.0867C91.7781 24.4632 91.0967 23.5649 90.1804 22.4832C88.3469 20.3191 85.5777 17.4269 81.8483 14.5337C74.3945 8.75154 63.1161 2.97174 47.7783 2.97174C31.8327 2.97174 20.4645 8.75798 13.0795 14.5311C9.38279 17.421 6.68276 20.3093 4.91067 22.4694C4.02496 23.549 3.37219 24.4453 2.94368 25.067C2.85709 25.1926 2.77967 25.307 2.71135 25.4094ZM93.8498 25.4334C94.8173 24.8275 94.8169 24.827 94.8166 24.8263L94.8155 24.8246L94.8123 24.8196L94.8019 24.8031C94.7931 24.7894 94.7807 24.77 94.7646 24.7452C94.7325 24.6955 94.6857 24.6242 94.6243 24.5326C94.5015 24.3495 94.3201 24.0853 94.0795 23.7516C93.5985 23.0844 92.8806 22.1387 91.9223 21.0075C90.0065 18.7461 87.1247 15.7375 83.2476 12.7299C75.4881 6.71048 63.7308 0.688721 47.7783 0.688721C31.2355 0.688721 19.385 6.70405 11.6734 12.7325C7.8219 15.7434 5.0042 18.7559 3.14561 21.0214C2.21598 22.1545 1.52518 23.1022 1.06396 23.7713C0.833308 24.1059 0.659957 24.3711 0.542754 24.5551C0.484149 24.6471 0.43957 24.7189 0.408874 24.769C0.393526 24.794 0.381648 24.8136 0.373221 24.8276L0.363166 24.8444L0.360076 24.8496L0.359015 24.8514C0.358618 24.852 0.358275 24.8526 1.341 25.4334L0.358275 24.8526L-0.00012207 25.4591L0.381234 26.0513L1.341 25.4334C0.381234 26.0513 0.381574 26.0519 0.381973 26.0525L0.383063 26.0542L0.386294 26.0592L0.396961 26.0755C0.405941 26.0892 0.418662 26.1086 0.435125 26.1333C0.468052 26.1828 0.515957 26.254 0.578868 26.3455C0.704684 26.5283 0.890566 26.7923 1.13674 27.1256C1.62902 27.7923 2.36287 28.7374 3.34016 29.8679C5.29393 32.128 8.22558 35.135 12.1506 38.1412C20.0049 44.1568 31.8517 50.178 47.7783 50.178C63.2451 50.178 75 44.1515 82.8717 38.1423C86.8068 35.1382 89.7783 32.1338 91.7691 29.8764C92.765 28.7472 93.5168 27.8035 94.0222 27.1381C94.275 26.8053 94.4663 26.542 94.5958 26.3597C94.6606 26.2686 94.7099 26.1977 94.7438 26.1485C94.7608 26.1239 94.7739 26.1047 94.7831 26.0911L94.794 26.075L94.7983 26.0685C94.7987 26.0679 94.7991 26.0674 93.8498 25.4334ZM93.8498 25.4334L94.7991 26.0674L95.2092 25.4533L94.8173 24.8275L93.8498 25.4334Z" fill="#333333"/>
<path fill-rule="evenodd" clip-rule="evenodd" d="M195.347 25.4088C195.424 25.5159 195.511 25.6363 195.609 25.7693C196.07 26.3934 196.768 27.2924 197.704 28.3747C199.577 30.5402 202.398 33.4339 206.179 36.3286C213.737 42.1145 225.113 47.895 240.433 47.895C255.26 47.895 266.536 42.1201 274.122 36.3277C277.916 33.4309 280.78 30.5345 282.692 28.3663C283.648 27.2826 284.365 26.3824 284.84 25.757C284.935 25.6315 285.021 25.5172 285.097 25.4146C285.027 25.3159 284.95 25.2064 284.863 25.0867C284.414 24.4631 283.733 23.5648 282.816 22.4832C280.983 20.319 278.215 17.4267 274.486 14.5336C267.035 8.75141 255.761 2.97174 240.433 2.97174C224.465 2.97174 213.092 8.75822 205.708 14.5311C202.012 17.4209 199.314 20.309 197.544 22.469C196.659 23.5485 196.007 24.4448 195.579 25.0664C195.492 25.192 195.415 25.3064 195.347 25.4088ZM286.486 25.4334C287.453 24.8275 287.453 24.827 287.452 24.8263L287.451 24.8246L287.448 24.8196L287.438 24.8032C287.429 24.7894 287.417 24.77 287.4 24.7452C287.368 24.6955 287.322 24.6242 287.26 24.5327C287.137 24.3495 286.956 24.0853 286.715 23.7517C286.234 23.0844 285.517 22.1387 284.559 21.0076C282.643 18.7462 279.762 15.7376 275.886 12.73C268.129 6.71061 256.376 0.688721 240.433 0.688721C223.868 0.688721 212.013 6.70381 204.302 12.7325C200.451 15.7435 197.635 18.7561 195.778 21.0218C194.849 22.155 194.159 23.1027 193.698 23.7719C193.468 24.1066 193.295 24.3717 193.178 24.5558C193.119 24.6479 193.075 24.7196 193.044 24.7697C193.029 24.7947 193.017 24.8144 193.009 24.8284L192.999 24.8452L192.995 24.8504L192.994 24.8521C192.994 24.8528 192.994 24.8534 193.977 25.4334L192.994 24.8534L192.636 25.4597L193.017 26.0515L193.977 25.4334C193.017 26.0515 193.018 26.052 193.018 26.0527L193.019 26.0543L193.022 26.0593L193.033 26.0757C193.042 26.0894 193.055 26.1087 193.071 26.1335C193.104 26.183 193.152 26.2542 193.215 26.3456C193.341 26.5285 193.527 26.7924 193.773 27.1258C194.265 27.7925 195 28.7375 195.977 29.8681C197.932 32.1281 200.865 35.1351 204.791 38.1413C212.649 44.1569 224.5 50.178 240.433 50.178C255.887 50.178 267.638 44.1514 275.508 38.1422C279.442 35.1382 282.413 32.1338 284.404 29.8764C285.4 28.7473 286.152 27.8036 286.658 27.1382C286.911 26.8054 287.102 26.5421 287.231 26.3599C287.296 26.2687 287.346 26.1979 287.38 26.1487C287.396 26.1241 287.41 26.1049 287.419 26.0913L287.43 26.0752L287.434 26.0687C287.434 26.0681 287.435 26.0676 286.486 25.4334ZM286.486 25.4334L287.435 26.0676L287.845 25.4535L287.453 24.8275L286.486 25.4334Z" fill="#333333"/>
<path fill-rule="evenodd" clip-rule="evenodd" d="M48.7366 22.9915C48.7366 22.361 48.2256 21.85 47.5951 21.85C46.9647 21.85 46.4536 22.361 46.4536 22.9915V72.3682C46.4536 72.9986 46.9647 73.5097 47.5951 73.5097H142.5V85.9333C142.5 86.5637 143.011 87.0748 143.641 87.0748C144.272 87.0748 144.783 86.5637 144.783 85.9333V73.5097H240.231C240.862 73.5097 241.373 72.9986 241.373 72.3682V22.9915C241.373 22.361 240.862 21.85 240.231 21.85C239.601 21.85 239.09 22.361 239.09 22.9915V71.2267H48.7366V22.9915Z" fill="#FF9100"/>
</svg>
