<svg width="64" height="23" viewBox="0 0 64 23" fill="none" xmlns="http://www.w3.org/2000/svg">
<g clip-path="url(#clip0_3854_173351)">
<path opacity="0.59" d="M50.0077 1.97394C46.0873 1.4018 41.3008 1.97056 38.1384 4.85622C34.7378 9.48846 40.6724 17.3015 43.8575 20.1375C49.0134 25.7991 58.1111 22.1344 58.4543 12.8906C58.969 6.1481 55.4716 2.77134 50.0077 1.97394Z" fill="#CCD8D6"/>
<path d="M29.7119 6.49786C31.0662 5.92196 32.4653 5.66322 34.0603 6.10836C34.3597 6.21945 34.6344 6.35903 34.8761 6.5229C35.1863 6.80276 35.4503 7.10505 35.6634 7.42431C35.8518 7.74762 35.962 8.08963 35.9897 8.43701C35.7654 8.30903 35.5125 8.1894 35.3208 8.08368C35.0496 7.9351 34.7618 7.80116 34.4601 7.68305C33.8439 7.33461 33.0562 7.1595 32.2573 7.19339C31.684 7.16977 31.1095 7.22482 30.5679 7.35528C30.0263 7.48574 29.5285 7.68896 29.1041 7.95292C28.892 8.07811 28.5861 8.25339 28.2597 8.45092C28.2597 8.38971 28.2597 8.33129 28.2597 8.27008C28.2479 8.07042 28.2166 7.87152 28.1659 7.6747C28.6007 7.23648 29.1208 6.84058 29.7119 6.49786V6.49786Z" fill="#666666"/>
<path opacity="0.59" d="M14.6821 1.80479C11.1313 1.65508 6.39991 1.89255 4.80632 6.45093C1.85707 13.4666 5.1744 23.4558 12.7338 22.8002C19.2024 22.0981 25.5409 14.4681 25.6441 7.02396C25.0112 2.13518 18.1475 1.97514 14.6821 1.80479Z" fill="#CCD8D6"/>
<path opacity="0.59" d="M54.746 2.01035H54.8921C54.673 2.01035 54.4591 1.96413 54.2349 1.95386L54.746 2.01035Z" fill="#808080"/>
<path opacity="0.59" d="M45.9105 20.119C42.1134 17.2892 35.0771 9.49321 39.1299 4.87106C40.7416 3.63334 42.3741 2.4059 44.6117 2.66269C46.4814 2.15038 48.4089 1.87087 50.3492 1.8307C47.8222 1.66765 45.2854 1.93167 42.8488 2.61133C40.6164 2.35968 38.9838 3.58713 37.3721 4.82484C33.3402 9.44699 40.3764 17.243 44.1527 20.0728C45.1708 20.9786 46.3639 21.6728 47.6607 22.114C48.9575 22.5552 50.3314 22.7344 51.7002 22.6407C49.5414 22.449 47.5068 21.5628 45.9105 20.119V20.119Z" fill="#808080"/>
<path opacity="0.59" d="M6.1338 6.53003C7.79768 2.45226 12.419 1.85652 16.3309 1.90788H15.8458C11.72 1.7538 6.22247 1.99518 4.37083 6.53003C0.96484 13.4581 4.74636 23.2931 13.3891 22.8C6.00861 21.9115 2.97297 12.9651 6.1338 6.53003Z" fill="#808080"/>
<path d="M20.8638 2.28775C36.1438 4.59948 41.7274 2.28775 41.7274 2.28775Z" fill="#808080"/>
</g>
<path opacity="0.59" d="M30.6578 1.00988C39.2956 2.00835 57.3741 -2.10496 60.3856 5.49104C61.5314 6.77615 60.6647 9.63779 62.9906 9.66645C64.3421 9.48013 64.3421 11.9978 62.9564 11.7446C61.9183 11.6682 61.7126 12.2223 61.7762 13.0775C62.1141 19.8136 54.965 23.9555 48.707 22.4746C42.6939 21.5191 38.5023 15.6573 36.0099 10.5598C35.6867 8.58677 35.0795 6.37963 32.6116 6.29842C30.2367 6.15987 29.4875 6.63283 28.6453 8.87819C26.7797 14.2479 23.2149 19.3311 17.8726 21.8105C12.7115 23.8839 5.22448 22.5319 3.18256 16.9806C2.25219 15.6525 2.72228 12.251 1.29245 11.7685C0.543259 11.7303 -0.0590349 11.3146 0.00462193 10.6315C0.0682788 9.94831 0.729331 9.6139 1.47363 9.64257C2.94263 9.88621 3.11892 5.03719 4.66137 3.81896C10.8704 -1.62245 24.0914 2.13256 30.6578 1.00988ZM15.2774 2.24243C11.4041 2.09911 6.24299 2.32365 4.50467 6.54206C1.28755 13.0345 4.9062 22.2787 13.1522 21.6672C20.2083 21.0175 27.1224 13.9613 27.2351 7.06757C26.5397 2.57208 19.0527 2.40009 15.2774 2.24243ZM60.5423 12.4469C61.0956 6.19809 57.5357 1.99401 51.1211 2.31887C48.4177 1.99069 45.6743 2.20034 43.0562 2.93515C40.9556 2.70106 39.4229 3.84285 37.9098 4.99419C34.1247 9.29382 40.7303 16.5458 44.2755 19.1782C50.0438 24.4237 61.551 20.5254 60.5374 12.4469H60.5423ZM26.0501 2.98293C26.8972 3.77597 27.71 4.36358 28.1605 5.25217C28.2976 5.52448 28.6012 5.3525 28.8069 5.25217C34.0219 2.09434 34.9424 7.89405 37.7238 3.00682L26.0501 2.98293Z" fill="#333333"/>
<defs>
<clipPath id="clip0_3854_173351">
<rect width="61" height="21" fill="white" transform="translate(0 1.77441)"/>
</clipPath>
</defs>
</svg>
