<svg width="76" height="54" viewBox="0 0 76 54" fill="none" xmlns="http://www.w3.org/2000/svg">
<mask id="mask0_3854_173334" style="mask-type:alpha" maskUnits="userSpaceOnUse" x="0" y="0" width="76" height="54">
<rect x="0.333008" width="75.3335" height="53.2172" fill="white"/>
</mask>
<g mask="url(#mask0_3854_173334)">
<path d="M31.1927 9.52598C34.3118 8.56377 37.5342 8.13148 41.2076 8.87521C41.8971 9.06082 42.5298 9.29403 43.0866 9.56781C43.8009 10.0354 44.4089 10.5404 44.8998 11.0739C45.3336 11.614 45.5874 12.1855 45.6514 12.7659C45.1346 12.552 44.5522 12.3522 44.1107 12.1755C43.486 11.9273 42.8232 11.7035 42.1283 11.5062C40.7092 10.924 38.895 10.6314 37.0551 10.6881C35.7346 10.6486 34.4115 10.7406 33.1641 10.9585C31.9167 11.1765 30.7703 11.516 29.7928 11.9571C29.3043 12.1662 28.5997 12.4591 27.8481 12.7891C27.8481 12.6868 27.8481 12.5892 27.8481 12.487C27.821 12.1534 27.7487 11.821 27.632 11.4922C28.6335 10.7601 29.8313 10.0986 31.1927 9.52598V9.52598Z" fill="#666666"/>
<path d="M13.9031 53.1181C26.6983 53.1181 37.0708 50.8131 37.0708 47.9697C37.0708 45.1263 26.6983 42.8213 13.9031 42.8213C1.1079 42.8213 -9.26465 45.1263 -9.26465 47.9697C-9.26465 50.8131 1.1079 53.1181 13.9031 53.1181Z" fill="url(#paint0_radial_3854_173334)"/>
<path d="M65.9978 53.8322C81.4996 53.8322 94.0664 50.9832 94.0664 47.4687C94.0664 43.9543 81.4996 41.1052 65.9978 41.1052C50.4959 41.1052 37.9292 43.9543 37.9292 47.4687C37.9292 50.9832 50.4959 53.8322 65.9978 53.8322Z" fill="url(#paint1_radial_3854_173334)"/>
<path d="M44.5579 17.8344L44.5579 17.8348C43.9829 25.3917 45.4076 32.3249 49.3727 37.9324C53.3356 43.5369 59.8776 47.8758 69.6504 50.1695L69.667 50.1733L69.6832 50.1783C75.2023 51.8766 80.1852 50.4618 84.5577 47.2174C88.9456 43.9614 92.6989 38.8729 95.6847 33.292C98.6675 27.7167 100.865 21.6864 102.158 16.5863C102.804 14.0364 103.222 11.7279 103.401 9.83192C103.581 7.91652 103.51 6.48433 103.229 5.64845L103.229 5.64773C102.883 4.61653 101.756 3.38094 98.4038 2.3632C95.0617 1.34849 89.6216 0.587617 80.8682 0.418177C71.3463 0.587898 62.5317 1.06152 55.9512 3.45559C52.6701 4.64927 49.9743 6.3106 48.0258 8.62438C46.0814 10.9332 44.8524 13.9254 44.5579 17.8344Z" fill="#A9BDBA" fill-opacity="0.59" stroke="#A9BDBA"/>
<path d="M28.7272 21.0115C28.2866 21.8453 28.2321 24.6554 28.2321 25.5922C28.2321 25.9125 28.0894 26.301 28.0319 26.6234C27.9243 27.2264 27.791 27.8528 27.6751 28.4668C27.4198 29.8196 26.9284 31.1006 26.2008 32.2538C25.8988 32.7324 25.5835 33.2049 25.3198 33.704C24.9948 34.3189 25.0449 35.109 25.0883 35.7919L25.0904 35.8256C25.1523 36.8026 26.0625 36.8257 26.8051 36.8085C27.6034 36.79 28.3818 36.2143 28.8729 35.6068C29.5688 34.7458 29.8957 33.5307 30.289 32.5134C30.8116 31.1617 31.2158 29.7102 31.6032 28.311C32.0033 26.8657 32.507 25.4324 32.6735 23.9231C32.7349 23.3659 32.8359 22.7321 32.739 22.1725C32.6484 21.6496 32.467 20.7806 32.0983 20.3847C31.6815 19.937 31.333 19.6503 30.7222 19.6503C30.4214 19.6503 30.0818 19.7658 29.8084 19.8877C29.3148 20.1077 28.9718 20.5487 28.7272 21.0115Z" fill="#C4C4C4"/>
<path d="M28.7272 21.0115C28.2866 21.8453 28.2321 24.6554 28.2321 25.5922C28.2321 25.9125 28.0894 26.301 28.0319 26.6234C27.9243 27.2264 27.791 27.8528 27.6751 28.4668C27.4198 29.8196 26.9284 31.1006 26.2008 32.2538C25.8988 32.7324 25.5835 33.2049 25.3198 33.704C24.9948 34.3189 25.0449 35.109 25.0883 35.7919L25.0904 35.8256C25.1523 36.8026 26.0625 36.8257 26.8051 36.8085C27.6034 36.79 28.3818 36.2143 28.8729 35.6068C29.5688 34.7458 29.8957 33.5307 30.289 32.5134C30.8116 31.1617 31.2158 29.7102 31.6032 28.311C32.0033 26.8657 32.507 25.4324 32.6735 23.9231C32.7349 23.3659 32.8359 22.7321 32.739 22.1725C32.6484 21.6496 32.467 20.7806 32.0983 20.3847C31.6815 19.937 31.333 19.6503 30.7222 19.6503C30.4214 19.6503 30.0818 19.7658 29.8084 19.8877C29.3148 20.1077 28.9718 20.5487 28.7272 21.0115Z" fill="#C4C4C4"/>
<path fill-rule="evenodd" clip-rule="evenodd" d="M25.0674 36.0322C25.1728 36.9308 26.0531 36.9522 26.7749 36.9355C27.5732 36.917 28.3516 36.3412 28.8427 35.7337C29.3877 35.0594 29.7064 34.1678 30.008 33.3241C30.0914 33.0907 30.1736 32.8609 30.2588 32.6404C30.7815 31.2886 31.1857 29.8372 31.573 28.438C31.6649 28.1061 31.7622 27.775 31.8596 27.4433C32.1866 26.3305 32.5151 25.2129 32.6433 24.0501C32.6518 23.9727 32.6611 23.8938 32.6706 23.8138C32.729 23.3181 32.7923 22.7813 32.7088 22.2994C32.6183 21.7765 32.4368 20.9076 32.0681 20.5116C31.8484 20.2757 31.6477 20.0844 31.4176 19.9563C31.6506 20.3976 31.7791 21.0277 31.8508 21.4413C31.9342 21.9232 31.8709 22.4601 31.8125 22.9557C31.8031 23.0357 31.7938 23.1146 31.7852 23.192C31.657 24.3548 31.3286 25.4725 31.0016 26.5853C30.9041 26.9169 30.8068 27.2481 30.7149 27.5799C30.3276 28.9791 29.9234 30.4306 29.4007 31.7823C29.3155 32.0028 29.2334 32.2326 29.1499 32.4661C28.8484 33.3097 28.5297 34.2013 27.9846 34.8757C27.4936 35.4832 26.7152 36.0589 25.9168 36.0774C25.6394 36.0838 25.3386 36.0846 25.0674 36.0322Z" fill="#A9BDBA"/>
<path d="M44.5555 20.1568C44.9962 20.9906 45.0506 23.8007 45.0506 24.7375C45.0506 25.0578 45.1933 25.4463 45.2508 25.7686C45.3584 26.3716 45.4917 26.9981 45.6076 27.612C45.8629 28.9648 46.3543 30.2458 47.082 31.399C47.3839 31.8776 47.6992 32.3502 47.9629 32.8493C48.2879 33.4642 48.2378 34.2542 48.1944 34.9371L48.1923 34.9709C48.1304 35.9479 47.2202 35.971 46.4776 35.9538C45.6793 35.9353 44.9009 35.3595 44.4099 34.752C43.7139 33.8911 43.3871 32.6759 42.9937 31.6587C42.4711 30.3069 42.0669 28.8555 41.6795 27.4563C41.2794 26.011 40.7757 24.5777 40.6092 23.0684C40.5478 22.5111 40.4468 21.8773 40.5437 21.3177C40.6343 20.7948 40.8158 19.9259 41.1844 19.5299C41.6012 19.0823 41.9497 18.7955 42.5605 18.7955C42.8613 18.7955 43.2009 18.911 43.4743 19.0329C43.9679 19.253 44.3109 19.694 44.5555 20.1568Z" fill="#C4C4C4"/>
<path d="M40.8354 27.5063C43.0423 36.9849 44.9709 38.4717 47.7122 37.8335C50.4534 37.1952 48.0069 35.0024 46.2324 27.3811C45.2886 23.3273 45.711 16.8267 42.9698 17.465C40.2285 18.1032 38.6285 18.0277 40.8354 27.5063Z" stroke="#FF4C40" stroke-width="1.33874" stroke-miterlimit="10" stroke-linecap="round" stroke-dasharray="4 4"/>
<path fill-rule="evenodd" clip-rule="evenodd" d="M48.2168 35.1741C48.1114 36.0728 47.2311 36.0942 46.5093 36.0775C45.7109 36.059 44.9325 35.4832 44.4415 34.8757C43.8964 34.2014 43.5777 33.3097 43.2762 32.4661C43.1928 32.2326 43.1106 32.0028 43.0254 31.7823C42.5027 30.4306 42.0985 28.9791 41.7112 27.5799C41.6193 27.2481 41.522 26.9169 41.4245 26.5853C41.0975 25.4725 40.7691 24.3548 40.6409 23.1921C40.6323 23.1146 40.623 23.0357 40.6136 22.9558C40.5552 22.4601 40.4919 21.9233 40.5753 21.4414C40.6659 20.9185 40.8474 20.0495 41.2161 19.6536C41.4358 19.4177 41.6365 19.2264 41.8666 19.0983C41.6336 19.5396 41.505 20.1697 41.4334 20.5833C41.3499 21.0652 41.4132 21.602 41.4717 22.0977C41.4811 22.1777 41.4904 22.2566 41.4989 22.334C41.6272 23.4968 41.9556 24.6144 42.2826 25.7272C42.3801 26.0589 42.4774 26.39 42.5692 26.7219C42.9566 28.1211 43.3608 29.5725 43.8834 30.9243C43.9687 31.1448 44.0508 31.3746 44.1343 31.608C44.4358 32.4517 44.7545 33.3433 45.2996 34.0176C45.7906 34.6251 46.569 35.2009 47.3673 35.2194C47.6447 35.2258 47.9456 35.2266 48.2168 35.1741Z" fill="#A9BDBA"/>
<path d="M28.7294 17.8334L28.7294 17.8337C29.2883 25.3937 27.9034 32.3295 24.051 37.938C20.2017 43.5418 13.8495 47.878 4.36174 50.1702L4.3448 50.1743L4.32817 50.1796C-1.02236 51.8744 -5.85411 50.464 -10.0991 47.2215C-14.36 43.9669 -18.006 38.8791 -20.9069 33.2973C-23.8047 27.7216 -25.9396 21.6905 -27.1958 16.5896C-27.8238 14.0393 -28.23 11.7301 -28.4036 9.83325C-28.5789 7.91739 -28.5104 6.48275 -28.2359 5.64433L-28.2357 5.64363C-27.899 4.61013 -26.8055 3.37772 -23.5557 2.362C-20.3126 1.3484 -15.0311 0.587624 -6.52909 0.418182C2.721 0.58792 11.2789 1.06169 17.6667 3.45396C20.8508 4.64643 23.4674 6.30614 25.3595 8.6189C27.2481 10.9275 28.4431 13.9213 28.7294 17.8334Z" fill="#A9BDBA" fill-opacity="0.59" stroke="#A9BDBA"/>
<path d="M26.7744 23.8485C26.8388 23.4192 27.8911 23.0858 28.3189 23.0858C29.4418 23.0858 29.4388 24.4085 29.4058 25.0138C29.3677 25.7118 28.8288 26.3023 28.7257 26.9895C28.675 27.3277 28.7371 27.3761 29.1198 27.3761C30.0074 27.3761 29.9453 25.9049 30.2067 25.4693" stroke="white" stroke-linecap="round"/>
<path d="M47.3677 23.8485C47.2872 23.4192 45.9718 23.0858 45.437 23.0858C44.0334 23.0858 44.0372 24.4085 44.0784 25.0138C44.126 25.7118 44.7997 26.3023 44.9285 26.9895C44.992 27.3277 44.9143 27.3761 44.436 27.3761C43.3265 27.3761 43.4041 25.9049 43.0774 25.4693" stroke="white" stroke-linecap="round"/>
<path d="M32.523 27.5063C30.3161 36.9849 28.3875 38.4717 25.6462 37.8335C22.905 37.1952 25.3515 35.0024 27.126 27.3811C28.0698 23.3273 27.6474 16.8267 30.3886 17.465C33.1299 18.1032 34.7299 18.0277 32.523 27.5063Z" stroke="#FF4C40" stroke-width="1.33874" stroke-miterlimit="10" stroke-linecap="round" stroke-dasharray="4 4"/>
</g>
<defs>
<radialGradient id="paint0_radial_3854_173334" cx="0" cy="0" r="1" gradientUnits="userSpaceOnUse" gradientTransform="translate(13.9031 47.449) scale(18.8201 7.39496)">
<stop offset="0.25" stop-color="#D0D0D0"/>
<stop offset="0.33" stop-color="#D1D1D1" stop-opacity="0.97"/>
<stop offset="0.44" stop-color="#D6D6D6" stop-opacity="0.88"/>
<stop offset="0.56" stop-color="#DCDCDC" stop-opacity="0.74"/>
<stop offset="0.7" stop-color="#E6E6E6" stop-opacity="0.54"/>
<stop offset="0.85" stop-color="#F2F2F2" stop-opacity="0.28"/>
<stop offset="1" stop-color="white" stop-opacity="0"/>
</radialGradient>
<radialGradient id="paint1_radial_3854_173334" cx="0" cy="0" r="1" gradientUnits="userSpaceOnUse" gradientTransform="translate(65.9978 46.8252) scale(22.8012 9.14031)">
<stop offset="0.25" stop-color="#D0D0D0"/>
<stop offset="0.33" stop-color="#D1D1D1" stop-opacity="0.97"/>
<stop offset="0.44" stop-color="#D6D6D6" stop-opacity="0.88"/>
<stop offset="0.56" stop-color="#DCDCDC" stop-opacity="0.74"/>
<stop offset="0.7" stop-color="#E6E6E6" stop-opacity="0.54"/>
<stop offset="0.85" stop-color="#F2F2F2" stop-opacity="0.28"/>
<stop offset="1" stop-color="white" stop-opacity="0"/>
</radialGradient>
</defs>
</svg>
