<svg width="62" height="16" viewBox="0 0 62 16" fill="none" xmlns="http://www.w3.org/2000/svg">
<g clip-path="url(#clip0_3998_181187)">
<path opacity="0.43" d="M24.1836 6.25225C24.1836 4.05575 23.6781 3.40126 21.6559 3.21285C21.2004 3.17318 20.745 3.21285 20.2895 3.21285C18.9687 3.17814 17.6434 3.21285 16.3271 3.08889C13.4897 2.83107 10.675 3.29218 7.84666 3.34672C7.24754 3.4292 6.65415 3.55509 6.07042 3.72355C5.72898 3.77094 5.40538 3.91683 5.13312 4.1461C4.86085 4.37537 4.64982 4.67969 4.52188 5.02757C3.97241 6.3523 3.8133 7.82978 4.06643 9.25694C4.24406 10.0602 4.2987 10.8932 4.48088 11.6815C5.00009 13.9524 5.32347 14.4234 7.0223 14.7953C9.30586 15.2665 11.6337 15.433 13.9543 15.2911C16.2673 15.4602 18.5906 15.2816 20.8589 14.7606C22.5349 14.3986 24.2474 13.0847 24.1882 10.6006C24.1563 9.14291 24.17 7.70006 24.1836 6.25225Z" fill="#CCD8D6"/>
<g clip-path="url(#clip1_3998_181187)">
<path d="M22.3633 1.77188H22.1757C21.682 1.72745 21.1883 1.77188 20.6947 1.74719C20.1023 1.74719 19.5099 1.74719 18.9175 1.74719C20.0677 1.75707 21.218 1.74226 22.3633 1.77188Z" fill="#808080"/>
</g>
<path opacity="0.43" d="M55.5429 3.7018C52.5794 2.8777 49.5043 3.20536 46.4664 3.116C43.3635 3.54791 37.4735 1.28908 37.1762 6.79962C37.0554 8.93433 36.7396 10.7712 37.6639 12.6577C40.451 16.6938 50.0989 15.1051 54.4374 14.7278C58.0838 14.5442 59.1243 4.39186 55.5429 3.7018Z" fill="#CCD8D6"/>
<path opacity="0.59" d="M26.8209 3.8801C27.9569 3.26514 29.2152 2.90985 30.5051 2.83985C31.795 2.76985 33.0843 2.98687 34.2802 3.47529C35.0602 3.77149 35.3762 3.3815 35.5737 2.81378C36.1513 1.13036 37.4595 0.513274 39.0738 0.39973C43.9052 0.0442816 48.7562 0.0442816 53.5877 0.39973C54.4872 0.4749 55.3799 0.616809 56.2584 0.824286C57.0965 0.96803 57.8702 1.36564 58.475 1.96337C59.0798 2.56109 59.4865 3.3301 59.64 4.16643C59.7733 4.82795 60.0597 5.07972 60.6965 5.07972C61.3333 5.07972 62.0393 5.20314 61.9998 6.02263C61.9652 6.73351 61.3235 6.88162 60.7113 6.86681C59.9856 6.86681 59.724 7.18769 59.6598 7.90351C59.529 9.40584 59.1434 10.8749 58.5194 12.2478C57.8579 13.6893 56.6731 14.2225 55.2464 14.494C51.6772 15.1555 48.0684 15.0124 44.4745 14.9877C42.4743 14.9592 40.49 14.6263 38.59 14.0003C37.0497 13.5067 36.1463 12.3021 35.6872 10.7668C35.2437 9.57334 35.0083 8.31265 34.9911 7.03959C35.0207 6.29908 34.4135 5.82022 33.831 5.55858C32.7996 5.04212 31.6473 4.81526 30.4971 4.9022C29.3469 4.98914 28.2418 5.38662 27.2997 6.05225C27.0704 6.22698 26.8913 6.4591 26.7803 6.72519C26.6694 6.99129 26.6306 7.28194 26.6678 7.56782C26.6678 8.79212 26.7221 9.99667 26.2285 11.1963C25.404 13.171 23.9033 14.1089 21.8792 14.5384C17.7768 15.3974 13.635 14.8939 9.51282 15.0321C8.21447 15.0716 7.00991 14.6322 5.78068 14.3854C4.14169 14.0596 2.84827 11.996 2.70017 9.94237C2.67055 9.57705 2.70017 9.19693 2.64587 8.83655C2.4879 7.91832 2.26574 7.05934 1.04144 7.04946C0.895252 7.06358 0.747777 7.04388 0.610416 6.99189C0.473054 6.9399 0.34949 6.85701 0.249278 6.74964C0.149066 6.64227 0.0748867 6.5133 0.0324838 6.37268C-0.00991916 6.23206 -0.0194156 6.08358 0.00473291 5.93871C0.0294164 5.292 0.498403 5.09453 0.992073 5.11921C1.18823 5.13466 1.38551 5.11086 1.57237 5.0492C1.75923 4.98755 1.93192 4.88927 2.08037 4.76012C2.22882 4.63098 2.35005 4.47354 2.43697 4.29701C2.52389 4.12049 2.57478 3.92841 2.58663 3.732C2.87296 2.03871 4.06763 1.36732 5.47953 0.908209C6.4992 0.594847 7.55063 0.396153 8.61434 0.315807C13.1956 -0.0840657 17.7768 0.108465 22.3581 0.276312C22.7274 0.30248 23.0939 0.358612 23.4541 0.444158C25.6509 0.848968 26.4062 1.61416 26.8209 3.8801ZM14.2915 13.6844C16.797 13.8529 19.3137 13.6751 21.7706 13.1562C23.5923 12.7958 25.4485 11.4876 25.3843 9.01427C25.3448 7.58262 25.3843 6.14605 25.3843 4.70947C25.409 2.52251 24.8363 1.87087 22.6444 1.68327C22.1508 1.64378 21.6571 1.68327 21.1634 1.65859C19.7318 1.62403 18.2903 1.65859 16.8685 1.53517C13.788 1.27846 10.7371 1.73758 7.67143 1.79188C7.0221 1.87446 6.37894 1.99979 5.74612 2.16707C5.3769 2.21508 5.02717 2.36071 4.733 2.58894C4.43882 2.81716 4.21084 3.11972 4.07257 3.46542C3.47444 4.78369 3.30189 6.25556 3.5789 7.67643C3.77143 8.47617 3.83068 9.30554 4.02321 10.0905C4.586 12.3515 4.94143 12.8205 6.77788 13.1907C9.25313 13.6595 11.7762 13.8253 14.2915 13.6844ZM46.5775 1.65859C44.3215 1.65859 42.0654 1.59935 39.8093 1.65859C37.3015 1.74745 36.3536 2.90757 36.6893 5.30681C36.7346 5.54538 36.7194 5.7915 36.6449 6.02263C35.8699 7.8344 36.5659 9.47832 37.2077 11.1272C37.367 11.5309 37.6218 11.89 37.9502 12.1737C38.2786 12.4574 38.6709 12.6573 39.0935 12.7563C40.7775 13.2589 42.5166 13.554 44.2721 13.635C47.8611 13.7239 51.46 13.8325 55.0341 13.1808C55.7007 13.0754 56.3231 12.7814 56.8278 12.3335C57.3326 11.8856 57.6986 11.3025 57.8826 10.6533C58.4849 8.77237 58.4256 6.86681 58.3763 4.94643C58.3763 3.62833 57.4679 2.37935 56.2041 2.20656C54.6737 1.99922 53.1927 1.49074 51.6031 1.59935C49.9493 1.74745 48.261 1.65859 46.5775 1.65859Z" fill="#333333"/>
<path opacity="0.59" d="M7.98248 13.3042C6.14109 12.934 5.79061 12.465 5.22783 10.204C5.03036 9.41902 4.97604 8.58966 4.77857 7.78991C4.5042 6.36895 4.67665 4.89789 5.27224 3.57891C5.41091 3.23255 5.63966 2.92954 5.93476 2.70126C6.22987 2.47299 6.58063 2.32774 6.95073 2.28056C7.58344 2.11283 8.22662 1.98748 8.87602 1.90536C11.2061 1.86093 13.5313 1.58941 15.8615 1.5746C12.9686 1.40182 10.0904 1.80663 7.20742 1.86093C6.55719 1.9378 5.91364 2.06322 5.28212 2.23613C4.91202 2.28331 4.56127 2.42856 4.26616 2.65683C3.97105 2.88511 3.74231 3.18811 3.60363 3.53447C3.00805 4.85345 2.83559 6.32451 3.10996 7.74548C3.30249 8.54522 3.36175 9.37459 3.55922 10.1595C4.11707 12.4205 4.47249 12.8846 6.31387 13.2598C8.17273 13.6215 10.0628 13.7985 11.9565 13.788C10.6216 13.7269 9.29311 13.5652 7.98248 13.3042Z" fill="#808080"/>
<path opacity="0.59" d="M40.2985 12.8991C39.8759 12.8018 39.4834 12.6031 39.1548 12.3201C38.8263 12.0372 38.5715 11.6784 38.4127 11.275C37.7709 9.64092 37.0748 7.98219 37.8499 6.17042C37.9239 5.93751 37.9392 5.6899 37.8943 5.44966C37.5734 3.05536 38.5065 1.8903 41.0193 1.80637C43.2704 1.72738 45.5264 1.80637 47.7825 1.80637C49.3968 1.80637 51.0161 1.88536 52.6205 1.80637C52.1297 1.74079 51.6339 1.72096 51.1395 1.74713C49.4659 1.86561 47.7776 1.77675 46.0942 1.77675C43.8381 1.77675 41.582 1.71751 39.3259 1.77675C36.8181 1.86561 35.8703 3.02574 36.206 5.42497C36.2509 5.66521 36.2356 5.91283 36.1615 6.14573C35.3865 7.9575 36.0825 9.60142 36.7243 11.2503C36.8846 11.6529 37.1398 12.0107 37.4681 12.2935C37.7965 12.5763 38.1882 12.7756 38.6101 12.8744C40.294 13.3783 42.033 13.675 43.7887 13.7581L45.1809 13.7927C43.5252 13.6777 41.8876 13.378 40.2985 12.8991Z" fill="#808080"/>
</g>
<defs>
<clipPath id="clip0_3998_181187">
<rect width="62" height="14.9779" fill="white" transform="translate(0 0.0490723)"/>
</clipPath>
<clipPath id="clip1_3998_181187">
<rect width="49.6533" height="12.2874" fill="white" transform="translate(2.96191 1.53003)"/>
</clipPath>
</defs>
</svg>
