<svg width="64" height="29" viewBox="0 0 64 29" fill="none" xmlns="http://www.w3.org/2000/svg">
<g clip-path="url(#clip0_3998_181158)">
<path opacity="0.43" d="M16.7622 28.0617C22.8389 27.9048 27.7514 23.353 27.6627 16.6667C27.5739 9.9804 23.0164 5.67981 16.5638 5.48623C11.2284 5.33451 5.27702 9.44675 5.66856 16.7661C5.22481 23.8867 11.2702 28.203 16.7622 28.0617Z" fill="#CCD8D6"/>
<path opacity="0.43" d="M47.648 26.3105C52.9594 26.2561 57.3949 22.3122 57.5448 15.6565C57.5027 9.05534 52.6971 4.84917 47.5918 4.91845C42.1305 4.98772 37.7559 9.29781 37.7559 15.6021C37.7605 22.327 42.3787 26.365 47.648 26.3105Z" fill="#CCD8D6"/>
<path opacity="0.59" d="M35.2245 15.1298C35.1949 14.6319 35.1949 14.1325 35.2245 13.6346C35.3966 12.2922 34.6867 11.5228 33.5464 11.2281C32.4061 10.9334 31.2712 10.7806 30.1955 11.5337C29.3725 12.1121 29.1197 12.7397 29.2488 13.8201C29.4945 15.8067 29.2736 17.824 28.6043 19.7074C27.935 21.5909 26.8363 23.287 25.3977 24.6575C23.4939 26.5193 21.0643 27.7308 18.4484 28.1227C15.7591 28.5811 13.3871 27.959 11.0259 26.873C7.94928 25.4542 6.0775 22.9441 4.92647 19.8173C4.63602 19.0206 4.22723 18.2457 4.31329 17.3398C4.39935 16.434 3.88838 16.0247 3.02241 16.0029C2.37697 16.0029 1.6885 15.9647 1.69388 15.0479C1.69926 14.1312 2.40923 14.022 3.11384 14.0166C3.9314 14.0166 4.18959 13.6128 4.35633 12.7833C5.46434 7.18455 9.29395 3.06459 14.7425 2.36611C20.7021 1.60214 25.0427 4.07412 27.9418 9.30728C28.3129 9.97302 28.5765 10.1094 29.2703 9.69472C30.1809 9.10491 31.2427 8.80068 32.3228 8.8201C33.403 8.83951 34.4535 9.1817 35.3429 9.80385C36.1389 10.3223 36.2304 9.70017 36.4778 9.25816C38.1452 6.15319 40.5118 3.86675 43.8734 2.74263C50.5645 0.510761 57.2126 4.26511 59.6383 10.6279C59.7674 10.9607 59.7083 11.3645 59.832 11.7192C60.2407 12.767 60.1224 14.2785 61.9081 14.153C62.0115 14.1528 62.1137 14.1741 62.2087 14.2155C62.3036 14.2568 62.3892 14.3174 62.4602 14.3936C62.5312 14.4697 62.5861 14.5598 62.6216 14.6582C62.6571 14.7567 62.6724 14.8614 62.6665 14.9661C62.6665 15.4845 62.3653 16.0193 61.7898 15.9811C60.4344 15.8883 60.4559 16.7505 60.2246 17.76C59.0628 22.8786 56.2767 26.5402 51.0809 28.1281C44.4059 30.1745 37.1985 25.7216 35.601 19.0806C35.3282 17.7824 35.2019 16.457 35.2245 15.1298ZM5.46433 15.2062C5.00715 22.6385 11.241 27.135 16.894 26.9931C23.1602 26.8294 28.2215 22.0819 28.1247 15.108C28.0279 8.13404 23.3377 3.64847 16.695 3.44657C11.198 3.28286 5.06631 7.57745 5.46433 15.2062ZM59.1435 15.2062C59.0897 7.92123 53.5766 3.28832 47.7084 3.35926C41.4423 3.44111 36.4132 8.18862 36.4132 15.1462C36.4132 22.5566 41.7381 27.0095 47.7891 26.9494C53.8401 26.8894 58.9929 22.5676 59.1435 15.2335V15.2062Z" fill="#333333"/>
</g>
<defs>
<clipPath id="clip0_3998_181158">
<rect width="64" height="27.4213" fill="white" transform="translate(0 0.965576)"/>
</clipPath>
</defs>
</svg>
