<svg width="60" height="21" viewBox="0 0 60 21" fill="none" xmlns="http://www.w3.org/2000/svg">
<path opacity="0.59" d="M45.2479 20.0471C43.2508 20.1942 41.2457 19.901 39.3744 19.1883C37.2989 18.4829 36.0363 16.8573 34.927 15.1499C33.491 13.0822 32.6205 10.675 32.4017 8.16709C32.3353 7.14472 31.8139 6.12234 31.8906 5.04885C31.8906 4.78814 31.6912 4.599 31.4765 4.44054C31.1401 4.18055 30.7428 4.01103 30.3224 3.94813C29.9019 3.88523 29.4724 3.93105 29.0747 4.08122C28.6769 4.23139 28.3243 4.4809 28.0504 4.80599C27.7764 5.13107 27.5903 5.5209 27.5097 5.93831C26.9985 7.94728 26.7071 10.0278 25.9761 11.9601C25.1097 14.3175 23.6937 16.4344 21.8457 18.1352C20.5064 19.3774 18.7326 19.8017 17.0406 19.9704C14.0422 20.3373 11.0001 20.0726 8.11013 19.1934C7.13521 18.898 6.24578 18.3721 5.51705 17.6603C4.78832 16.9485 4.24173 16.0716 3.9235 15.1039C3.09653 13.1462 2.55261 11.0807 2.30815 8.96966C2.25192 8.33578 1.8532 8.14664 1.32156 7.98306C0.503661 7.73258 0.529217 6.78177 0.902384 6.57219C2.04233 5.92809 1.92476 4.7677 2.24681 3.84245C3.04426 1.68013 3.97973 0.908231 6.28007 0.87756C8.4884 0.87756 10.6814 0.417491 12.8897 0.621966C15.5581 0.867336 18.2419 0.759985 20.9051 0.944013C22.5264 1.04089 24.0921 1.57044 25.4394 2.47757C25.6591 2.67686 25.9342 2.80461 26.2282 2.84387C26.5222 2.88313 26.8211 2.83204 27.0854 2.69739C28.7263 1.8437 30.3723 1.67501 32.0337 2.69739C32.3057 2.87352 32.6296 2.95177 32.952 2.91925C33.2744 2.88673 33.5762 2.74537 33.8075 2.51847C35.2235 1.32229 37.0229 1.05136 38.6996 0.984909C41.7667 0.862224 44.8032 0.68331 47.8601 0.627079C49.8128 0.596408 51.7451 0.918456 53.7029 0.954239C55.5176 0.98491 56.9643 2.65138 57.1534 4.78303C57.2403 5.74406 57.4499 6.31659 58.5439 6.25014C58.6494 6.24284 58.7553 6.25791 58.8546 6.29436C58.9539 6.3308 59.0444 6.3878 59.1201 6.46163C59.1959 6.53546 59.2552 6.62445 59.2942 6.72278C59.3332 6.82111 59.351 6.92657 59.3464 7.03226C59.3464 7.50766 59.1062 7.9575 58.641 7.94728C56.8314 7.90127 56.949 9.39394 56.7496 10.4317C56.3527 12.5164 55.6644 14.535 54.7049 16.4279C54.0694 17.6502 52.9903 18.583 51.6889 19.0349C49.6515 19.8748 47.4446 20.2216 45.2479 20.0471ZM44.4913 18.7538C46.9399 18.8356 48.8364 18.7845 50.6818 18.2068C51.7042 17.8797 52.7266 17.4247 53.2378 16.4381C55.2287 12.8241 56.1456 8.71656 55.8806 4.599C55.8141 3.65842 54.7048 2.29355 53.8052 2.28844C51.2492 2.28844 48.6933 1.68013 46.1834 1.96128C44.3584 2.16064 42.5386 2.16064 40.7188 2.19131C39.3595 2.18456 38.0052 2.35643 36.6906 2.7025C35.612 3.0041 34.4005 3.21369 33.9455 4.31274C33.5196 5.36743 33.3446 6.50667 33.4344 7.64057C33.5767 9.3711 34.0413 11.0598 34.8043 12.6195C36.1692 15.247 37.6056 17.7314 40.8466 18.5186C42.2523 18.8458 43.6377 18.6567 44.4862 18.7538H44.4913ZM13.3089 2.20154C11.1006 2.20154 8.88713 2.2731 6.66346 2.20154C4.43979 2.12997 3.08516 3.32103 3.14139 5.85652C3.28266 8.76969 3.89551 11.6407 4.9561 14.3576C5.56441 16.024 6.39765 17.4707 8.19192 17.9921C9.29692 18.4091 10.455 18.6689 11.6322 18.764C13.2015 18.764 14.776 18.8151 16.3453 18.764C17.4757 18.7691 18.5928 18.52 19.6139 18.0351C20.635 17.5502 21.534 16.842 22.2445 15.9627C24.4298 13.4518 25.6716 10.2577 25.7563 6.93002C25.7921 4.54789 25.0662 3.46417 23.2975 2.84052C22.139 2.41592 20.9172 2.18953 19.6834 2.17086C17.5466 2.21687 15.4252 2.20154 13.2987 2.20154H13.3089Z" fill="#333333"/>
<path opacity="0.43" d="M36.1397 12.6328C38.617 19.757 45.6369 19.5865 51.3715 18.2794C55.9534 16.399 56.3507 9.07336 56.3507 4.52714C55.5855 -0.0190716 41.8007 2.09388 41.8007 2.09388C34.9476 2.09388 33.4514 6.19581 36.1397 12.6328Z" fill="#CCD8D6"/>
<path opacity="0.59" d="M35.505 12.6041C32.8417 6.54141 33.5318 2.32412 40.3255 2.17076C40.0903 2.17076 39.8705 2.17076 39.6763 2.12476C31.8756 1.84871 30.9861 6.18869 33.7772 12.5581C35.6072 17.5524 39.8092 18.9173 44.231 18.8355C40.4737 18.5441 37.0948 16.939 35.505 12.6041Z" fill="#808080"/>
<path opacity="0.59" d="M9.45471 17.9969C5.67703 17.2199 1.78689 3.35139 6.73007 2.23701C6.54093 2.23701 6.36202 2.18589 6.19333 2.15521C-0.493003 1.2453 3.67829 17.1177 7.72689 17.9458C9.75613 18.6234 11.8856 18.9518 14.0247 18.917C12.4709 18.7881 10.9373 18.4793 9.45471 17.9969Z" fill="#808080"/>
<path opacity="0.43" d="M10.0305 18.0039C18.7725 20.9528 26.2955 17.2411 26.6986 6.94034C26.9998 -0.846646 8.57835 2.18419 8.57835 2.18419C2.22581 1.27801 6.18886 17.1694 10.0305 18.0039Z" fill="#CCD8D6"/>
<path d="M27.8133 3.74891C28.7866 3.17568 29.7922 2.91815 30.9385 3.36122C31.1537 3.4718 31.3511 3.61073 31.5248 3.77383C31.7477 4.05239 31.9375 4.35328 32.0907 4.67106C32.226 4.99286 32.3052 5.33329 32.3252 5.67905C32.164 5.55167 31.9822 5.43259 31.8444 5.32736C31.6495 5.17948 31.4426 5.04615 31.2258 4.9286C30.783 4.58177 30.2168 4.40747 29.6427 4.44121C29.2306 4.4177 28.8177 4.47249 28.4285 4.60234C28.0392 4.7322 27.6815 4.93447 27.3764 5.19721C27.224 5.32182 27.0041 5.49629 26.7696 5.6929C26.7696 5.63198 26.7696 5.57382 26.7696 5.5129C26.7611 5.31417 26.7386 5.11619 26.7021 4.92029C27.0146 4.4841 27.3884 4.09004 27.8133 3.74891Z" fill="#666666"/>
</svg>
