<svg width="59" height="65" viewBox="0 0 59 65" fill="none" xmlns="http://www.w3.org/2000/svg">
<g clip-path="url(#clip0_4102_178184)">
<path opacity="0.59" d="M37.7835 11.4699L37.9035 11.4099C39.7835 10.2899 40.8235 8.32989 42.1435 6.66989C41.1358 5.92347 40.0727 5.25487 38.9635 4.66989C32.7135 1.40989 27.7535 -0.49011 21.6935 3.35989C14.5735 7.88989 11.0635 14.4999 11.0335 22.8999C10.9835 32.8999 10.6335 42.911 9.3335 52.9999C11.1397 53.1293 14.643 53.0308 16.2076 52.1192C17.7722 51.2075 19.0254 49.8451 19.8035 48.2099C20.7075 46.715 21.1124 44.9713 20.9596 43.2311C20.8068 41.4908 20.1042 39.8443 18.9535 38.5299C17.2235 36.3899 16.2235 33.7399 14.8435 31.2599C12.0635 26.3299 16.1835 22.5199 17.0135 18.1799C17.0735 17.8199 18.4135 17.3899 19.0135 17.5199C21.1044 17.9878 23.2674 18.0361 25.377 17.6619C27.4867 17.2877 29.5011 16.4984 31.3035 15.3399C31.6434 14.9596 32.0682 14.665 32.5435 14.4799C33.4988 13.7629 34.3951 12.9704 35.2235 12.1099C35.4535 11.8599 35.9935 11.8799 37.5835 11.5699L37.8935 11.4099L37.7835 11.4699Z" fill="#A9BDBA"/>
<path d="M46.5545 52.5303C42.4306 50.4629 38.411 48.4632 37.0743 44L24.4467 44.9661C24.0391 48.2023 22.4843 52.482 18.3036 54.0373C16.0378 54.8875 13.5635 55.0034 10.6152 55.3512C9.75847 55.3124 8.9002 55.3318 8.04603 55.4091C7.08122 55.4811 6.12731 55.6626 5.20198 55.9501C4.94041 56.0184 4.69703 56.1451 4.48946 56.3211C4.2819 56.4971 4.11536 56.718 4.00192 56.9677C3.88848 57.2174 3.83098 57.4897 3.83358 57.7648C3.83618 58.04 3.89882 58.3111 4.01696 58.5585C4.29155 58.9431 4.64484 59.2624 5.05241 59.4943C5.45998 59.7261 5.91211 59.865 6.37753 59.9013C7.09021 60.0632 7.81829 60.1442 8.54848 60.1428C8.85035 60.2613 9.17871 60.2914 9.49649 60.2298C24.1149 62.6932 38.5816 62.8285 52.9725 59.0802C53.731 58.9546 54.1576 58.4715 53.5319 57.3123C51.2282 55.6893 49.0193 53.7668 46.5545 52.5303Z" fill="#F5F7F7"/>
<path d="M37.5536 22.88C36.9614 22.5123 36.497 21.9711 36.2236 21.33C34.1636 20.19 32.1636 18.96 30.2236 17.7C27.6375 18.9736 24.9032 19.9208 22.0836 20.52C17.7736 21.3 14.9636 24.52 15.9736 29.11C16.513 31.5641 17.5319 33.8875 18.9716 35.9468C20.4114 38.0061 22.2438 39.7607 24.3636 41.11C27.5836 43.25 31.1136 43.03 33.7636 40.42C36.4343 37.827 38.6667 34.8179 40.3736 31.5099C42.9836 26.1699 42.6136 25.85 37.5536 22.88Z" fill="#F5F7F7"/>
<path opacity="0.59" d="M16.9064 23.9987C16.824 24.2137 16.7298 24.4401 16.6357 24.6437C15.8539 26.5319 15.638 28.5928 16.0124 30.593C16.3868 32.5931 17.3365 34.4523 18.7539 35.9597C20.4062 37.4084 22.1668 39.2083 23.8335 40C21.2916 33.9007 14.3335 35 20.0954 21C19.1398 22.1 18.0714 23.1047 16.9064 23.9987Z" fill="#A9BDBA"/>
<path opacity="0.59" d="M48.4843 44.0788C48.1918 42.3023 48.086 40.5 48.1685 38.7014C48.1685 37.9995 47.9908 33.9368 48.1685 33.2646C48.1685 28.4506 48.6521 27.0271 48.4646 22.2131C48.2079 15.6791 47.3788 10.954 40.963 7C38.4917 9.41922 37.8335 11 37.3603 11.3494C36.2252 12.8421 35.5442 14.1271 34.8335 14.9871C35.8205 18.8522 37.9131 21.1258 42.9371 21.8276C44.4369 22.4019 47.0913 22.0563 45.9871 25.1391C46.3918 30.2299 43.44 33.1839 41.6441 37.0011C39.1469 41.825 39.364 44.6324 43.8649 47.588C45.9071 48.7778 48.6555 49.0832 50.8335 50C49.9082 47.8822 48.6966 46.3807 48.4843 44.0788Z" fill="#A9BDBA"/>
<g clip-path="url(#clip1_4102_178184)">
<path d="M18.4032 48.3064C14.3337 48.5001 15.8337 58.5001 13.4202 63.9434V58.2297V52.516C4.72721 53.8283 1.48476 58.1232 1.08691 64.3354H1.76325C6.38823 63.5514 10.7645 63.9775 15.1409 64.2842H24.7091C21.8337 57.0001 21.6471 54.0897 18.4032 48.3064Z" fill="white"/>
<path d="M41.9556 47.531C48.3335 48.5001 43.4367 62.5001 47.2072 62.5001L46.8335 50.5001C60.3335 55.5001 59.6698 57.9187 60.1373 64.4718H59.4311C54.5873 63.6196 50.0021 64.0968 45.4169 64.4207L35.4011 64.378C34.5709 64.2721 33.6467 64.6781 32.8335 64.5001L41.9556 47.531Z" fill="white"/>
<path d="M58.4536 65.49C58.2563 63.1015 57.5249 60.7879 56.3136 58.72C55.1922 56.7944 53.6293 55.1629 51.7536 53.96C50.8167 53.3785 49.8083 52.9214 48.7536 52.6C47.481 52.2438 46.2531 51.7439 45.0936 51.11C43.9314 50.4329 42.9322 49.5087 42.1667 48.4027C41.4012 47.2968 40.888 46.0361 40.6636 44.71C42.0337 46.6429 43.9383 48.1339 46.1436 49C47.2487 49.3681 48.3781 49.6588 49.5236 49.87C51.552 50.3229 53.4332 51.2808 54.9926 52.6549C56.5519 54.029 57.739 55.7747 58.4436 57.73C59.4217 60.2235 59.4253 62.9939 58.4536 65.49Z" fill="#A9BDBA"/>
<path d="M45.9333 64.76C45.3998 62.8015 45.0911 60.7885 45.0132 58.76C44.8832 56.76 45.0132 54.76 44.9232 53.03C44.9232 52.82 44.9233 52.6 44.8633 52.4C44.8421 52.2484 44.8121 52.0981 44.7733 51.95C44.6535 51.617 44.485 51.3036 44.2733 51.02C43.8033 50.34 43.1032 49.61 42.4532 48.81C40.9863 47.2391 40.1404 45.1884 40.0732 43.04C41.0675 44.7025 42.4078 46.1315 44.0032 47.23C44.8566 47.8299 45.6593 48.4988 46.4033 49.23C46.8519 49.6978 47.2172 50.239 47.4832 50.83C47.5586 50.9953 47.6221 51.1658 47.6732 51.34C47.7264 51.4965 47.7665 51.657 47.7932 51.82C47.861 52.0971 47.9144 52.3775 47.9532 52.66C48.073 53.7367 48.073 54.8234 47.9532 55.9C47.8632 56.9 47.7233 57.9 47.5533 58.9C47.2386 60.9088 46.695 62.8749 45.9333 64.76Z" fill="#A9BDBA"/>
<path d="M33.6958 62.4695C35.0145 61.817 36.1605 60.9135 37.1126 59.7761C39.041 57.5341 40.3832 54.6311 41.0861 51.1823C41.2866 50.3252 41.3983 49.3961 41.42 48.4059C41.4624 47.4005 41.2227 46.2238 40.726 44.9999C40.9171 47.1111 40.9801 48.6354 40.3772 50.0981L38.4733 54.3334L36.5 58.5C35.7993 59.8806 34.3059 60.967 33.6958 62.4695Z" fill="#A9BDBA"/>
</g>
<path d="M1.46705 67C0.622313 64.8346 0.622313 62.4262 1.46705 60.2608C2.08119 58.5627 3.11102 57.0493 4.46051 55.8618C5.81 54.6743 7.43521 53.8514 9.18458 53.4697C10.1741 53.2814 11.1508 53.0297 12.1086 52.7161C14.0059 51.9645 15.647 50.6738 16.8335 49C16.635 50.1522 16.1889 51.2464 15.5267 52.2057C14.8644 53.165 14.0021 53.966 13.0005 54.5525C12.0003 55.1019 10.9417 55.5349 9.84485 55.8431C8.94239 56.1229 8.07817 56.5158 7.27234 57.0125C5.64968 58.0472 4.29453 59.4577 3.31923 61.127C2.27163 62.9187 1.63847 64.9264 1.46705 67Z" fill="#A9BDBA"/>
<path d="M12.3054 66C11.9617 64.2585 11.6796 62.517 11.424 60.8277C11.0788 59.0529 10.8813 57.2531 10.8335 55.4464C10.8335 55.2026 10.8335 54.95 10.8335 54.6975C10.8623 54.4006 10.9274 54.1082 11.0274 53.8268C11.2335 53.2846 11.5316 52.7811 11.9088 52.3378C12.5256 51.6469 13.2172 51.0249 13.9712 50.483C15.3517 49.5296 16.5587 48.3519 17.5408 47L17.8052 47.0697C18.0255 48.9766 16.9238 50.9271 15.7604 52.2942C15.1699 52.9908 14.5441 53.6091 14.0858 54.1315C13.8809 54.3454 13.6978 54.5787 13.5393 54.8281C13.4717 54.9414 13.4156 55.061 13.3719 55.1852C13.3097 55.3623 13.2568 55.5425 13.2132 55.725C12.971 57.3917 12.859 59.0743 12.8783 60.758C12.799 62.4995 12.7285 64.2411 12.5962 65.9826L12.3054 66Z" fill="#A9BDBA"/>
<path d="M23.6614 65.9479C23.0978 62.6617 22.306 59.4241 21.2925 56.2613C20.7761 54.6903 20.0712 53.1973 19.6122 51.609C19.1532 50.0206 18.7925 48.5016 17.8335 47.1389L17.9319 47C18.7363 47.362 19.423 47.9655 19.9073 48.736C20.3851 49.4535 20.7968 50.2179 21.1368 51.0187C21.7654 52.5945 22.2379 54.2351 22.5466 55.9141C22.9237 57.5806 23.2187 59.2558 23.4482 60.931C23.6621 62.6122 23.7907 64.3043 23.8335 66L23.6614 65.9479Z" fill="#A9BDBA"/>
</g>
<defs>
<clipPath id="clip0_4102_178184">
<rect width="58.13" height="64.17" fill="white" transform="translate(0.833496)"/>
</clipPath>
<clipPath id="clip1_4102_178184">
<rect width="61" height="20" fill="white" transform="translate(-0.166504 45)"/>
</clipPath>
</defs>
</svg>
