<svg width="60" height="21" viewBox="0 0 60 21" fill="none" xmlns="http://www.w3.org/2000/svg">
<g clip-path="url(#clip0_3854_173436)">
<path opacity="0.59" d="M33.2388 7.94386C34.4214 4.28151 37.0669 2.37186 40.2518 1.14236C42.4431 0.215996 44.8258 -0.155805 47.1922 0.0593529C52.1407 0.619168 56.4771 2.25676 58.8632 7.16953C59.273 8.01187 60.326 8.57692 59.9007 9.75933C59.4753 10.9417 59.1226 12.0614 58.6506 13.1758C57.3123 16.3149 54.672 17.9787 51.6272 19.0774C48.8852 20.0506 45.9334 20.2585 43.084 19.6791C39.7071 19.046 36.7142 17.5863 34.5304 14.7663C33.9781 14.0435 33.5886 13.2079 33.3892 12.3177C33.0572 10.8999 32.3258 9.73841 30.7956 9.38787C30.0614 9.18021 29.2843 9.1828 28.5514 9.39532C27.8185 9.60785 27.1587 10.0219 26.6459 10.5912C26.1791 11.083 26.2517 11.7213 26.0546 12.2864C24.7993 15.8545 22.019 17.8217 18.6629 18.9937C14.7167 20.3935 10.3952 20.261 6.54057 18.6222C4.10262 17.6648 1.90846 16.1109 0.871032 13.7618C-0.2857 11.1039 -0.436134 8.09035 1.31712 5.51625C3.24673 2.68054 6.03743 1.1162 9.435 0.462211C11.0695 0.0919665 12.7479 -0.0419172 14.4198 0.0645839C18.0975 0.425586 21.4588 1.63416 24.0679 4.43324C24.7894 5.18224 25.3508 6.07259 25.7174 7.0492C25.9197 7.59855 26.2361 7.88631 26.7808 7.57239C28.975 6.25395 31.0809 6.77191 33.2388 7.94386ZM13.0556 18.3083C14.5821 18.3669 16.1091 18.203 17.5892 17.8217C19.7638 17.2494 21.7208 16.0384 23.212 14.3425C24.2183 13.2072 25.4114 11.8887 24.5192 10.0523C25.318 7.67703 23.8656 6.19116 22.3717 4.8204C20.4667 3.09178 18.0604 2.02778 15.5091 1.78589C11.0171 1.26269 6.94517 1.94284 3.3868 5.1814C0.487187 7.79736 0.710232 13.0921 4.21155 15.5929C6.75033 17.5207 9.88249 18.4824 13.0556 18.3083ZM45.7346 18.3083C47.3046 18.3452 48.8729 18.1835 50.403 17.827C52.8316 17.199 55.0011 15.8128 56.6016 13.8664C58.22 11.9044 58.1993 9.54483 57.416 7.45729C56.6691 5.49009 54.9314 4.07224 52.9499 3.12003C49.5377 1.46168 45.6496 1.09049 41.9895 2.07364C39.6986 2.58154 37.6169 3.78475 36.0243 5.52148C34.7742 6.93933 34.4214 8.56645 34.5978 10.5232C34.7378 12.0405 35.0543 13.3275 36.0658 14.3948C37.29 15.735 38.7947 16.7834 40.4707 17.4639C42.1468 18.1445 43.952 18.4401 45.7553 18.3292L45.7346 18.3083Z" fill="#333333"/>
<g opacity="0.59">
<path d="M27.72 8.79851C28.7887 8.22084 29.8928 7.9613 31.1514 8.40781C31.3877 8.51925 31.6044 8.65926 31.7952 8.82363C32.0399 9.10434 32.2483 9.40757 32.4165 9.72781C32.5651 10.0521 32.6521 10.3952 32.674 10.7436C32.4969 10.6153 32.2974 10.4953 32.1461 10.3892C31.9321 10.2402 31.705 10.1058 31.4669 9.98735C30.9807 9.63783 30.359 9.46218 29.7286 9.49618C29.2762 9.47249 28.8229 9.5277 28.3955 9.65856C27.9681 9.78942 27.5753 9.99327 27.2404 10.258C27.073 10.3836 26.8316 10.5594 26.574 10.7576C26.574 10.6962 26.574 10.6376 26.574 10.5762C26.5647 10.3759 26.54 10.1764 26.5 9.97897C26.8431 9.53941 27.2536 9.14229 27.72 8.79851Z" fill="#666666"/>
<path d="M54.0128 16.0139C51.752 17.8581 48.9622 18.7814 46.134 18.6216C44.7726 18.6754 43.4111 18.519 42.0906 18.157C40.1621 17.6047 38.4264 16.4511 37.1 14.84C36.1758 13.751 35.649 13.0416 35.4734 10.7436C35.2978 8.44567 36.5131 7.0569 37.844 5.74806C39.5434 4.09837 41.6882 3.08264 43.9622 2.85064C47.9639 2.35108 51.5868 3.0055 54.7614 6.09775C57.326 8.59553 57.1273 13.6361 54.0128 16.0139Z" fill="#EEF2F1"/>
<path d="M21.7433 14.7024C20.6418 15.9636 19.2909 16.95 17.7878 17.5907C16.2847 18.2314 14.6666 18.5105 13.0499 18.4079C11.6347 18.4445 10.2208 18.2926 8.84116 17.9559C6.6443 17.362 4.68027 16.046 3.22951 14.1958C1.77516 12.3331 1.78919 10.093 2.5 8.11112C3.16872 6.23853 4.7353 4.89246 6.52167 3.99342C9.59957 2.4191 13.1063 2.06672 16.4075 3C18.4726 3.4789 20.3487 4.62182 21.7807 6.27331C22.9124 7.61938 23.2257 9.15918 23.0667 11.0169C22.9451 12.4673 22.6318 13.6842 21.7433 14.7024Z" fill="#EEF2F1"/>
<path d="M34.2634 7.93834C36.0332 3.60772 40.9916 1.79626 45.7975 2.01807C41.5205 2.21876 37.4114 4.07775 35.8349 7.93834C33.9074 14.804 39.9033 18.654 46.2349 18.9497C39.4049 19.2719 32.1783 15.369 34.2634 7.93834Z" fill="#808080"/>
<path d="M1.36549 7.94947C3.1369 3.61074 8.09991 1.79588 12.9102 2.0181C8.6293 2.21917 4.51638 4.08165 2.9384 7.94947C1.00918 14.828 7.01059 18.6852 13.348 18.9815C6.51174 19.3043 -0.721522 15.3941 1.36549 7.94947Z" fill="#808080"/>
</g>
<path opacity="0.43" d="M54.5206 16.2C52.1606 18.1667 49.2484 19.1515 46.296 18.9811C44.8749 19.0384 43.4537 18.8716 42.0752 18.4856C40.062 17.8965 38.2502 16.6662 36.8656 14.9479C35.9008 13.7864 35.3509 13.0299 35.1676 10.5791C34.9843 8.12829 36.2529 6.64716 37.6422 5.25127C39.4162 3.49185 41.6551 2.40857 44.0289 2.16113C48.2062 1.62835 51.9881 2.32629 55.302 5.62422C57.9792 8.28813 57.7718 13.6639 54.5206 16.2Z" fill="#CCD8D6"/>
<path opacity="0.43" d="M23.378 15.026C22.2281 16.3711 20.818 17.4231 19.2489 18.1064C17.6799 18.7897 15.9908 19.0873 14.3031 18.9779C12.8258 19.0169 11.3499 18.855 9.90967 18.4958C7.61639 17.8624 5.56617 16.4589 4.05175 14.4857C2.53357 12.4991 2.54822 10.11 3.29022 7.99628C3.98829 5.99914 5.62361 4.56353 7.48838 3.60469C10.7014 1.92567 14.362 1.54984 17.8081 2.5452C19.9638 3.05596 21.9223 4.27489 23.417 6.03622C24.5984 7.47183 24.9255 9.11404 24.7595 11.0953C24.6326 12.6421 24.3055 13.94 23.378 15.026Z" fill="#CCD8D6"/>
</g>
<defs>
<clipPath id="clip0_3854_173436">
<rect width="60" height="20" fill="white" transform="translate(0 0.330811)"/>
</clipPath>
</defs>
</svg>
