<svg viewBox="0 0 95 76" fill="none" xmlns="http://www.w3.org/2000/svg">
<g clip-path="url(#clip0_4193_878)">
<path d="M53.6339 67.8636C70.9709 67.8636 85.0252 64.6828 85.0252 60.759C85.0252 56.8352 70.9709 53.6543 53.6339 53.6543C36.297 53.6543 22.2427 56.8352 22.2427 60.759C22.2427 64.6828 36.297 67.8636 53.6339 67.8636Z" fill="url(#paint0_radial_4193_878)"/>
<path opacity="0.59" d="M11.385 14.4625C12.2072 11.6586 16.3604 8.72818 32.3617 8.13788H30.127C12.5867 8.51736 8.15945 11.5743 7.29508 14.4625C4.87064 22.3894 17.541 68.9387 38.6864 65.7764C20.0076 62.9303 9.10815 21.7991 11.385 14.4625Z" fill="#A9BDBA"/>
<path opacity="0.59" d="M36.1564 7.77991C56.859 8.15939 74.7577 9.88812 76.0648 27.8712C77.3086 45.0109 69.7402 59.4943 48.4262 64.7438C23.6968 72.6285 8.64419 22.3898 11.3849 14.1467C12.3336 11.2585 17.1192 8.15939 36.1564 7.77991Z" fill="#EEF2F1"/>
<path d="M41.3212 38.497C39.6136 31.9194 25.2988 31.7718 13.2188 33.6903C17.6671 45.2011 26.1632 58.7569 37.674 63.648C43.6403 54.9621 45.0106 44.9903 41.3212 38.497Z" fill="white"/>
<path d="M53.9717 36.3884C48.6801 41.7644 55.1945 50.5345 62.4046 57.0489C67.4409 54.5442 71.6235 50.6055 74.4259 45.7285C77.2282 40.8516 78.525 35.2546 78.1529 29.6422C68.1811 28.5037 58.7363 29.1151 53.9717 36.3884Z" fill="white"/>
<path d="M76.2421 28.3982C75.0194 10.4573 58.5332 8.81289 39.4328 8.43341H37.5986C55.7293 8.9183 70.9927 11.1319 72.1522 28.356C73.3117 45.5801 66.3968 59.9792 46.685 65.06C45.7842 65.3592 44.8606 65.5848 43.9233 65.7346C46.2214 66.0578 48.5634 65.8265 50.7539 65.06C70.5078 59.937 77.3806 45.4747 76.2421 28.3982Z" fill="url(#paint1_linear_4193_878)"/>
<path d="M76.192 30.4011C76.192 29.6843 76.192 28.9675 76.192 28.2929C74.8638 10.8791 56.691 9.31898 35.6932 8.89734C16.403 9.27682 11.5963 12.2072 10.6476 15.0111C9.69891 17.8151 10.6477 24.5403 13.4094 32.425C23.9505 30.4854 36.5997 30.633 38.2019 37.2739C41.4486 43.9569 40.3102 53.992 34.9764 62.8043C39.062 64.8846 43.8009 65.2782 48.1738 63.9006C53.8449 62.5935 57.218 58.6933 61.0549 56.2478C54.7303 49.6701 50.2609 42.7552 54.92 37.2739C58.9678 29.853 67.4007 29.2416 76.192 30.4011Z" stroke="#FF4C40" stroke-width="1.33874" stroke-miterlimit="10" stroke-linecap="round" stroke-dasharray="4 4"/>
</g>
<defs>
<radialGradient id="paint0_radial_4193_878" cx="0" cy="0" r="1" gradientUnits="userSpaceOnUse" gradientTransform="translate(53.6339 60.1476) scale(25.5094 10.2037)">
<stop offset="0.25" stop-color="#D0D0D0"/>
<stop offset="0.33" stop-color="#D1D1D1" stop-opacity="0.97"/>
<stop offset="0.44" stop-color="#D6D6D6" stop-opacity="0.88"/>
<stop offset="0.56" stop-color="#DCDCDC" stop-opacity="0.74"/>
<stop offset="0.7" stop-color="#E6E6E6" stop-opacity="0.54"/>
<stop offset="0.85" stop-color="#F2F2F2" stop-opacity="0.28"/>
<stop offset="1" stop-color="white" stop-opacity="0"/>
</radialGradient>
<linearGradient id="paint1_linear_4193_878" x1="37.5986" y1="37.1683" x2="76.3475" y2="37.1683" gradientUnits="userSpaceOnUse">
<stop offset="0.05" stop-color="#979797"/>
<stop offset="1" stop-color="white"/>
</linearGradient>
<clipPath id="clip0_4193_878">
<rect width="78.0249" height="60.084" fill="white" transform="translate(7 7.78009)"/>
</clipPath>
</defs>
</svg>
