<svg width="77" height="48" viewBox="0 0 77 48" fill="none" xmlns="http://www.w3.org/2000/svg">
<path d="M25.5 30C7.55075 30 -7 32.9101 -7 36.5C-7 40.0899 7.55075 43 25.5 43C43.4493 43 58 40.0899 58 36.5C58 32.9101 43.4493 30 25.5 30Z" fill="url(#paint0_radial_3998_180590)"/>
<path d="M42.7761 41.0024C42.7761 41.0024 42.8287 40.9975 42.9293 40.9879C49.1652 40.3585 61.2457 34.446 69.2113 19.7183C69.4558 19.2663 64.931 24.0857 64.0553 25.0827C61.046 28.5093 57.2534 31.0809 53.861 34.1223C53.7099 34.2577 52.2853 35.2563 52.285 34.8612C54.9175 33.1987 53.1286 28.2415 52.9692 23.6144C53.0742 21.8893 52.8357 18.0653 52.8357 18.0653C52.8357 18.0653 54.2543 17.9582 54.709 17.2557C55.0665 16.7036 56.4265 14.3954 57.1644 14.8845C59.1812 16.2213 60.4436 22.6468 61.7856 24.612C62.2831 25.3406 60.9669 19.9223 60.9868 19.5958C60.175 17.357 59.8326 15.4891 60.612 13.9204C61.5799 16.7498 62.3347 19.335 64.0429 21.2393C63.7439 19.0256 61.3903 13.2749 65.1973 13.5068C65.2985 15.5908 67.4894 20.8033 67.1734 19.3399C66.6821 17.0656 69.3071 18.1439 72.5398 16.4931C71.6947 18.9145 68.9853 23.4344 75.3562 22.6676C75.6505 24.3266 69.4026 28.0767 70.3791 29.5219C65.3216 33.3699 62.5016 31.5822 69.0366 36.5973C65.1121 38.825 44.8917 40.8006 42.9293 40.9879C42.8778 40.9931 42.8268 40.9979 42.7761 41.0024Z" fill="#CCD8D6"/>
<path d="M5.88096 12.4985C6.05819 12.2295 6.51196 11.3298 6.87936 11.2716C9.03602 13.0101 22.903 32.9802 25.1457 34.6145C26.1434 35.3415 27.1416 36.0427 28.3247 36.4327C29.16 36.7081 27.9231 37.4761 27.4623 37.4481C26.6163 37.3966 25.8883 37.2529 25.0853 36.9561C24.365 36.6898 23.6407 36.4163 22.9587 36.0602C22.4684 35.8043 22.0442 35.4337 21.5432 35.2026C21.0786 34.9883 20.1077 34.5088 19.8841 34.044C19.7559 33.7773 19.2933 33.6991 19.0141 33.5823C18.4437 33.3438 17.7978 33.3384 17.2396 33.1422C17.0924 33.0905 17.1617 31.7933 17.118 31.5969C16.9892 31.0173 17.2291 30.3113 17.2975 29.7428C17.4216 28.7118 17.6951 27.6248 18.1157 26.6706C18.1789 26.5273 17.8033 26.5532 17.7272 26.5602C17.3489 26.5948 16.911 26.9808 16.6404 27.2194L16.6293 27.2291C14.9874 28.6764 14.8371 30.792 14.7124 32.8403C14.6938 33.1462 14.7996 33.674 14.4378 33.3907C14.2371 33.2336 13.9674 33.1434 13.7414 33.0265C13.4199 32.8602 13.0312 32.3797 12.7958 32.1208C12.3689 31.6512 11.939 31.2258 11.4149 30.8616C11.095 30.6392 10.6882 30.452 10.4198 30.1777C10.0048 29.7534 10.1595 28.7214 10.1929 28.1711L10.3032 26.3589C10.388 24.9652 10.7374 23.6237 10.9231 22.2425C10.9548 22.0069 11.345 20.7404 10.9237 20.7148C10.4854 20.6881 10.3555 20.8044 10.0621 21.1274C8.32049 23.0437 7.40124 25.4345 8.6765 27.8745C8.80073 28.1122 8.4976 27.8697 8.43928 27.809C8.19641 27.5561 7.91111 27.3353 7.62318 27.136C7.0515 26.7401 6.53672 26.2925 6.01305 25.8372L5.99423 25.8208C5.40313 25.3068 4.75721 24.9904 4.09382 24.5811C3.99255 24.5186 3.77794 24.5554 3.77014 24.4183C3.76224 24.2795 3.67218 24.1416 3.6096 24.0202C3.40584 23.6251 3.33594 22.9408 3.3274 22.5009C3.30616 21.4073 3.35921 20.3226 3.43931 19.2274C3.54486 17.7842 3.98464 16.4156 4.52283 15.083C4.88783 14.1792 5.34395 13.3134 5.88096 12.4985Z" fill="#D9D9D9"/>
<path d="M5.88096 12.4985C6.05819 12.2295 6.51196 11.3298 6.87936 11.2716C9.03602 13.0101 22.903 32.9802 25.1457 34.6145C26.1434 35.3415 27.1416 36.0427 28.3247 36.4327C29.16 36.7081 27.9231 37.4761 27.4623 37.4481C26.6163 37.3966 25.8883 37.2529 25.0853 36.9561C24.365 36.6898 23.6407 36.4163 22.9587 36.0602C22.4684 35.8043 22.0442 35.4337 21.5432 35.2026C21.0786 34.9883 20.1077 34.5088 19.8841 34.044C19.7559 33.7773 19.2933 33.6991 19.0141 33.5823C18.4437 33.3438 17.7978 33.3384 17.2396 33.1422C17.0924 33.0905 17.1617 31.7933 17.118 31.5969C16.9892 31.0173 17.2291 30.3113 17.2975 29.7428C17.4216 28.7118 17.6951 27.6248 18.1157 26.6706C18.1789 26.5273 17.8033 26.5532 17.7272 26.5602C17.3489 26.5948 16.911 26.9808 16.6404 27.2194L16.6293 27.2291C14.9874 28.6764 14.8371 30.792 14.7124 32.8403C14.6938 33.1462 14.7996 33.674 14.4378 33.3907C14.2371 33.2336 13.9674 33.1434 13.7414 33.0265C13.4199 32.8602 13.0312 32.3797 12.7958 32.1208C12.3689 31.6512 11.939 31.2258 11.4149 30.8616C11.095 30.6392 10.6882 30.452 10.4198 30.1777C10.0048 29.7534 10.1595 28.7214 10.1929 28.1711L10.3032 26.3589C10.388 24.9652 10.7374 23.6237 10.9231 22.2425C10.9548 22.0069 11.345 20.7404 10.9237 20.7148C10.4854 20.6881 10.3555 20.8044 10.0621 21.1274C8.32049 23.0437 7.40124 25.4345 8.6765 27.8745C8.80073 28.1122 8.4976 27.8697 8.43928 27.809C8.19641 27.5561 7.91111 27.3353 7.62318 27.136C7.0515 26.7401 6.53672 26.2925 6.01305 25.8372L5.99423 25.8208C5.40313 25.3068 4.75721 24.9904 4.09382 24.5811C3.99255 24.5186 3.77794 24.5554 3.77014 24.4183C3.76224 24.2795 3.67218 24.1416 3.6096 24.0202C3.40584 23.6251 3.33594 22.9408 3.3274 22.5009C3.30616 21.4073 3.35921 20.3226 3.43931 19.2274C3.54486 17.7842 3.98464 16.4156 4.52283 15.083C4.88783 14.1792 5.34395 13.3134 5.88096 12.4985Z" fill="url(#paint1_linear_3998_180590)"/>
<path d="M4.73402 4.604C4.5204 3.61383 4.23403 2.40469 4.42859 1.39537C4.4728 1.16603 5.09988 1.76086 5.65256 1.07894C5.72941 1.30426 5.73525 1.56268 5.81441 1.80424C5.922 2.13256 6.14935 2.49827 6.33088 2.80147C6.56416 3.19112 6.67129 3.86245 6.79631 4.30858C7.29242 6.07897 7.85491 8.06381 8.57904 9.73909C9.36251 11.5516 10.3805 13.2424 11.1476 15.0691C12.3148 17.8485 13.9864 20.1685 15.9462 22.4196C16.67 23.2509 17.2558 24.3054 18.029 25.0679C20.5359 27.5401 22.409 30.1085 25.2649 32.2477C26.1762 32.9304 27.1472 33.5206 28.0586 34.2037C28.3854 34.4486 28.7302 34.6663 29.0553 34.9155C29.0837 34.9373 30.8948 35.9471 32.0659 36.5976C32.6345 36.9055 33.0433 37.1291 33.0418 37.137C33.0415 37.1387 32.6272 36.9094 32.0659 36.5976C30.7931 35.9085 28.7201 34.7973 28.6588 34.7393C28.3909 34.4862 27.9736 34.3016 27.6576 34.1054C26.9791 33.6841 26.3548 33.1909 25.723 32.7035C24.5526 31.8008 22.9554 30.5774 21.7964 29.6642C20.4934 28.6376 19.6747 27.6086 18.6141 26.3356C17.982 25.5769 17.1533 24.9491 16.579 24.1479C16.0195 23.3676 15.3382 22.6383 14.7234 21.9004C11.8309 18.4287 8.61353 15.1789 6.83856 10.9522C6.2845 9.63282 5.68576 8.34203 5.29525 6.94851C5.07902 6.17687 4.90298 5.38716 4.73402 4.604Z" fill="#666666"/>
<path d="M25.7371 35.331C22.3254 35.1234 18.0997 32.0261 14.7538 31.8225C13.0968 32.5329 18.6858 37.4094 19.3909 37.7326C24.0022 39.8458 29.9185 40.221 34.8573 40.5215C40.1788 40.8452 45.0872 39.088 49.7897 36.4392C50.4378 36.0742 51.0794 35.6278 51.7421 35.3088C52.6407 34.8763 52.3421 33.1857 52.3929 32.3503C52.6585 27.9845 50.8807 23.7049 49.0346 19.825C47.6554 16.9262 46.3685 22.8651 45.8338 24.0616C44.2402 27.628 42.0486 30.0742 38.5258 31.9538C34.3968 34.1568 30.4905 35.6202 25.7371 35.331Z" fill="url(#paint2_linear_3998_180590)"/>
<path d="M29.8091 21.3302C30.4516 21.087 32.4532 20.7977 31.7739 20.7152C25.549 19.9587 18.0109 22.0544 18.4792 14.357C16.439 13.3032 9.58401 11.9692 10.407 13.8655C11.4329 16.2296 12.9659 18.3126 14.5227 20.4002C18.9684 26.3616 24.783 32.4204 30.8275 34.7972C31.2207 35.2391 31.9634 35.034 32.4823 34.9387C34.2696 34.6105 36.4147 34.1813 37.7498 32.8363C38.2646 32.3177 38.0982 31.7266 37.6289 31.3037C37.1177 30.8431 36.9137 30.3049 36.4595 29.8146C35.559 28.8423 33.572 27.6729 34.76 26.1508C35.0283 25.807 34.4884 25.912 34.1816 25.9166C33.0183 25.934 31.8666 26.1165 30.7068 26.1388C29.6828 26.1585 28.6954 25.9913 27.708 25.7421C27.0754 25.5825 26.1595 25.351 25.6958 24.8444C24.9235 24.0007 26.0427 23.2481 26.7137 22.7969L26.7169 22.7947C27.6993 22.1342 28.7137 21.7447 29.8091 21.3302Z" fill="#D9D9D9"/>
<path d="M29.8091 21.3302C30.4516 21.087 32.4532 20.7977 31.7739 20.7152C25.549 19.9587 18.0109 22.0544 18.4792 14.357C16.439 13.3032 9.58401 11.9692 10.407 13.8655C11.4329 16.2296 12.9659 18.3126 14.5227 20.4002C18.9684 26.3616 24.783 32.4204 30.8275 34.7972C31.2207 35.2391 31.9634 35.034 32.4823 34.9387C34.2696 34.6105 36.4147 34.1813 37.7498 32.8363C38.2646 32.3177 38.0982 31.7266 37.6289 31.3037C37.1177 30.8431 36.9137 30.3049 36.4595 29.8146C35.559 28.8423 33.572 27.6729 34.76 26.1508C35.0283 25.807 34.4884 25.912 34.1816 25.9166C33.0183 25.934 31.8666 26.1165 30.7068 26.1388C29.6828 26.1585 28.6954 25.9913 27.708 25.7421C27.0754 25.5825 26.1595 25.351 25.6958 24.8444C24.9235 24.0007 26.0427 23.2481 26.7137 22.7969L26.7169 22.7947C27.6993 22.1342 28.7137 21.7447 29.8091 21.3302Z" fill="url(#paint3_linear_3998_180590)"/>
<defs>
<radialGradient id="paint0_radial_3998_180590" cx="0" cy="0" r="1" gradientUnits="userSpaceOnUse" gradientTransform="translate(30.0165 42.4011) rotate(180) scale(26.3708 9.37651)">
<stop offset="0.25" stop-color="#D0D0D0"/>
<stop offset="0.33" stop-color="#D1D1D1" stop-opacity="0.97"/>
<stop offset="0.44" stop-color="#D6D6D6" stop-opacity="0.88"/>
<stop offset="0.56" stop-color="#DCDCDC" stop-opacity="0.74"/>
<stop offset="0.7" stop-color="#E6E6E6" stop-opacity="0.54"/>
<stop offset="0.85" stop-color="#F2F2F2" stop-opacity="0.28"/>
<stop offset="1" stop-color="white" stop-opacity="0"/>
</radialGradient>
<linearGradient id="paint1_linear_3998_180590" x1="3.17469" y1="23.5022" x2="29.3137" y2="25.0924" gradientUnits="userSpaceOnUse">
<stop offset="0.05" stop-color="#979797"/>
<stop offset="1" stop-color="white"/>
</linearGradient>
<linearGradient id="paint2_linear_3998_180590" x1="14.699" y1="28.1392" x2="52.6006" y2="30.4451" gradientUnits="userSpaceOnUse">
<stop offset="0.05" stop-color="#979797"/>
<stop offset="1" stop-color="white"/>
</linearGradient>
<linearGradient id="paint3_linear_3998_180590" x1="9.74947" y1="23.2469" x2="38.5024" y2="24.9962" gradientUnits="userSpaceOnUse">
<stop offset="0.05" stop-color="#979797"/>
<stop offset="1" stop-color="white"/>
</linearGradient>
</defs>
</svg>
