<svg width="67" height="71" viewBox="0 0 67 71" fill="none" xmlns="http://www.w3.org/2000/svg">
<path d="M47.0371 62.4768C47.0371 62.1193 47.0371 61.7619 47.0371 61.3597C47.3794 58.232 45.933 57.4947 43.0401 56.1766C39.1645 54.4228 36.3379 56.1766 33.1579 56.7016C32.4511 56.9561 31.8162 57.381 31.3083 57.9396C30.8004 58.4983 30.4347 59.1737 30.243 59.9076C28.929 70.4749 29.2934 70.8435 38.6566 70.8324C48.0198 70.8212 46.8273 72.2622 47.0371 62.4768Z" fill="white"/>
<g clip-path="url(#clip0_4102_177778)">
<path d="M48.2596 10.2499C47.2325 8.4998 46.0209 6.97486 44.6658 5.72663C44.0494 2.50812 43.2241 2.10218 39.1498 1.72524C35.4411 1.37729 31.7533 0.579912 28.1699 0C28.1586 0.769513 28.2471 1.53558 28.4311 2.26166C26.3024 3.00439 24.2884 4.27661 22.4868 6.01659C21.808 6.7528 21.1722 7.56237 20.5854 8.43771C20.8292 8.24441 21.0903 8.05594 21.3689 7.8723C21.0903 8.0656 20.8292 8.25408 20.5854 8.43771C20.5623 8.46519 20.5444 8.50001 20.5332 8.5392C20.3331 9.00155 20.1133 9.44694 19.875 9.873C20.4914 18.6732 20.3451 27.4153 22.6017 35.2296C22.6247 35.2571 22.6427 35.2919 22.6539 35.3311C23.7261 37.7205 25.1378 39.7819 26.8028 41.3895C28.4677 42.9972 30.3512 44.1175 32.3383 44.6822H32.3906C43.4435 42.2321 50.1714 25.0667 48.2596 10.2499Z" fill="#F5F7F7"/>
<path d="M18.0164 11.2251C17.9047 11.6165 17.7771 12.0286 17.6496 12.3994C16.5902 15.837 16.2975 19.5894 16.8049 23.2309C17.3122 26.8725 18.5992 30.2575 20.5199 33.0021C22.759 35.6396 24.7646 38.5902 26.4999 41.7994C25.3957 24.5751 16.8049 31.836 22.3379 5.76538C21.0429 7.76815 19.5951 9.59729 18.0164 11.2251Z" fill="#C8D5D3"/>
</g>
<path d="M42.3768 44.1235C36.9958 48.2562 30.3434 48.2653 25.3484 44.6661L24.9057 44.431C24.8268 45.0371 24.5828 45.6223 24.1906 46.1455C23.7985 46.6688 23.2677 47.1175 22.6353 47.4604C25.5641 52.9857 28.7768 58.6467 30.7635 64.7236L30.6159 64.7779C30.684 64.9647 30.7407 65.1547 30.7861 65.3476C32.6117 63.9261 35.0773 60.3649 35.0773 60.3649L36.4372 58.0867C36.4372 58.0867 41.1559 49.8342 43.6142 48.22C43.0059 47.6685 42.5755 47.0074 42.3599 46.2936C42.1443 45.5799 42.1501 44.8351 42.3768 44.1235Z" fill="#F5F7F7"/>
<g clip-path="url(#clip1_4102_177778)">
<path d="M0.719787 62.57C-0.26532 60.0703 -0.26532 57.2898 0.719787 54.79C1.43599 52.8297 2.63695 51.0826 4.21069 49.7117C5.78444 48.3407 7.67972 47.3907 9.71979 46.95C10.8738 46.7327 12.0127 46.4421 13.1298 46.08C15.3423 45.2124 17.2561 43.7223 18.6398 41.79C18.4082 43.1202 17.8881 44.3834 17.1158 45.4909C16.3435 46.5983 15.3379 47.5231 14.1698 48.2C13.0034 48.8343 11.7689 49.3342 10.4898 49.69C9.43736 50.0131 8.42952 50.4666 7.48978 51.04C5.59748 52.2345 4.01713 53.8629 2.87976 55.79C1.65807 57.8584 0.919702 60.1761 0.719787 62.57Z" fill="#A9BDBA"/>
<path d="M13.1798 61.86C12.7898 59.86 12.4698 57.86 12.1798 55.92C11.788 53.8818 11.5639 51.8149 11.5098 49.74C11.5098 49.46 11.5098 49.17 11.5098 48.88C11.5424 48.539 11.6163 48.2033 11.7298 47.88C11.9636 47.2574 12.3018 46.6792 12.7298 46.17C13.4296 45.3766 14.2142 44.6624 15.0698 44.04C16.6361 42.9451 18.0055 41.5926 19.1198 40.04L19.4198 40.12C19.6698 42.31 18.4198 44.55 17.0998 46.12C16.4298 46.92 15.7198 47.63 15.1998 48.23C14.9673 48.4757 14.7596 48.7436 14.5798 49.03C14.5031 49.1601 14.4394 49.2974 14.3898 49.44C14.3192 49.6435 14.2592 49.8504 14.2098 50.06C13.9349 51.9741 13.8079 53.9065 13.8298 55.84C13.7398 57.84 13.6598 59.84 13.5098 61.84L13.1798 61.86Z" fill="#A9BDBA"/>
<path d="M26.2999 61.86C25.6124 58.074 24.6464 54.3439 23.4099 50.7C22.7799 48.89 21.9199 47.17 21.3599 45.34C20.7999 43.51 20.3599 41.76 19.1899 40.19L19.3099 40.03C20.2913 40.4471 21.1291 41.1423 21.7199 42.03C22.3029 42.8567 22.8052 43.7374 23.2199 44.66C23.9869 46.4755 24.5633 48.3656 24.9399 50.3C25.3999 52.22 25.7599 54.15 26.0399 56.08C26.3008 58.0169 26.4577 59.9664 26.5099 61.92L26.2999 61.86Z" fill="#A9BDBA"/>
</g>
<g clip-path="url(#clip2_4102_177778)">
<path d="M60.6201 62.49C60.4228 60.1015 59.6914 57.7879 58.4801 55.72C57.3587 53.7944 55.7958 52.1629 53.9201 50.96C52.9832 50.3785 51.9748 49.9214 50.9201 49.6C49.6475 49.2438 48.4196 48.7439 47.2601 48.11C46.0979 47.4329 45.0987 46.5087 44.3332 45.4027C43.5677 44.2968 43.0545 43.0361 42.8301 41.71C44.2002 43.6429 46.1048 45.1339 48.3101 46C49.4152 46.3681 50.5446 46.6588 51.6901 46.87C53.7185 47.3229 55.5997 48.2808 57.1591 49.6549C58.7184 51.029 59.9055 52.7747 60.6101 54.73C61.5882 57.2235 61.5918 59.9939 60.6201 62.49Z" fill="#A9BDBA"/>
<path d="M48.1003 61.76C47.5668 59.8015 47.2581 57.7885 47.1802 55.76C47.0502 53.76 47.1802 51.76 47.0902 50.03C47.0902 49.82 47.0902 49.6 47.0302 49.4C47.0091 49.2484 46.9791 49.0981 46.9402 48.95C46.8205 48.617 46.652 48.3036 46.4402 48.02C45.9702 47.34 45.2702 46.61 44.6202 45.81C43.1533 44.2391 42.3074 42.1884 42.2402 40.04C43.2345 41.7025 44.5748 43.1315 46.1702 44.23C47.0236 44.8299 47.8263 45.4988 48.5703 46.23C49.0189 46.6978 49.3842 47.239 49.6502 47.83C49.7256 47.9953 49.789 48.1658 49.8402 48.34C49.8934 48.4965 49.9335 48.657 49.9602 48.82C50.028 49.0971 50.0814 49.3775 50.1202 49.66C50.24 50.7367 50.24 51.8234 50.1202 52.9C50.0302 53.9 49.8902 54.9 49.7202 55.9C49.4056 57.9088 48.862 59.8749 48.1003 61.76Z" fill="#A9BDBA"/>
<path d="M35.1203 61.76C34.93 59.7961 34.9602 57.8171 35.2102 55.86C35.6807 51.9462 36.7887 48.1358 38.4902 44.58C38.9019 43.6681 39.3939 42.7947 39.9602 41.97C40.5264 41.1103 41.3141 40.4193 42.2402 39.97C40.9302 41.47 40.5303 43.28 39.9403 45.12L38.3002 50.62L36.7302 56.14C36.2302 58.02 35.7303 59.88 35.1203 61.76Z" fill="#A9BDBA"/>
</g>
<path d="M27.0518 10.4556C30.85 10.9247 34.7808 11.5726 38.6564 11.8631C43.2828 12.187 43.9453 12.5445 44.6409 15.7392C40.7874 15.3483 36.7131 14.8903 32.6167 14.5328C28.0786 14.1418 27.1622 13.2929 27.0518 10.4556Z" fill="#A9BDBA"/>
<path d="M38.9072 12.0775C42.8781 12.3609 44.1154 12.6679 44.7988 14.5218H45.2701C44.5278 11.1565 43.8208 10.7786 38.8837 10.4244C34.7007 10.1291 30.553 9.44428 26.4996 8.93652C26.4971 9.48991 26.5643 10.0414 26.6999 10.5779C30.7061 11.121 34.7949 11.7941 38.9072 12.0775Z" fill="#FFF7F5"/>
<defs>
<clipPath id="clip0_4102_177778">
<rect width="32.0204" height="44.6822" fill="white" transform="translate(16.5625)"/>
</clipPath>
<clipPath id="clip1_4102_177778">
<rect width="26.51" height="22.57" fill="white" transform="translate(0 40)"/>
</clipPath>
<clipPath id="clip2_4102_177778">
<rect width="26.34" height="22.49" fill="white" transform="translate(35 40)"/>
</clipPath>
</defs>
</svg>
