<svg width="62" height="23" viewBox="0 0 62 23" fill="none" xmlns="http://www.w3.org/2000/svg">
<path opacity="0.43" d="M44.4961 21.2754C49.1478 21.2754 53.0483 16.9908 55.2572 12.7174C56.7049 9.94694 60.2323 2.02824 55.3965 1.43378C48.8595 0.989934 42.3397 2.57465 36.5459 6.01563C31.3619 11.1078 38.128 21.6231 44.4961 21.2754Z" fill="#CCD8D6"/>
<path opacity="0.59" d="M37.8178 6.98216C43.3949 4.05741 49.5964 2.52413 55.8939 2.51293C48.9921 2.1933 42.1299 3.71928 36.0139 6.9337C30.3816 11.8283 37.7262 21.9245 44.6293 21.5852C44.7747 21.5852 44.9147 21.5852 45.0601 21.5852C38.6039 20.6322 32.5624 11.5483 37.8178 6.98216Z" fill="#808080"/>
<path opacity="0.59" d="M7.99247 0.89761C14.3732 0.89761 20.2963 2.66376 25.8963 5.61992C27.1628 6.19336 28.5546 6.43428 29.9402 6.31992C31.0046 6.10771 32.109 6.24364 33.0902 6.70761C33.6286 6.99838 34.1671 7.17069 34.7056 6.65377C36.6386 4.79069 39.1802 4.05838 41.5817 3.14299C46.3631 1.38818 51.447 0.606463 56.5348 0.843765C61.1925 0.983765 61.4509 3.75684 60.8748 6.97684C60.7832 7.5153 60.6109 8.01069 60.4709 8.52223C60.2232 9.39992 60.0348 10.1376 61.214 10.4553C61.4117 10.5207 61.5758 10.6613 61.6705 10.8468C61.7653 11.0322 61.7831 11.2475 61.7202 11.4461C61.5855 11.9845 61.1817 12.4207 60.6917 12.3776C58.9148 12.2053 58.3602 13.5138 57.6171 14.6822C55.7594 17.5953 53.4386 20.0291 50.2779 21.5799C45.0817 24.1215 39.5086 22.5276 36.0356 17.8107C34.346 15.6554 33.4013 13.0102 33.3432 10.2722C33.3432 9.1953 32.2663 8.33376 31.0386 8.27992C30.5044 8.2743 29.9854 8.45848 29.5742 8.79965C29.1631 9.14083 28.8863 9.61686 28.7932 10.143C28.2548 14.483 26.564 18.2199 22.8702 20.8153C21.5499 21.7911 20.0134 22.4334 18.3915 22.6875C16.7695 22.9416 15.1102 22.7999 13.5548 22.2745C9.19863 20.9392 6.32324 17.7945 3.98631 14.0791C3.37785 13.1099 2.81247 12.3184 1.51478 12.4207C1.23985 12.4355 0.968291 12.3545 0.74639 12.1915C0.52449 12.0285 0.365987 11.7936 0.297864 11.5268C0.077095 10.8592 0.556322 10.5415 1.06786 10.3099C1.78401 9.97607 1.88094 9.48607 1.64402 8.76992C1.30733 7.80517 1.03392 6.81949 0.825546 5.81915C0.684815 5.22706 0.680831 4.61069 0.813895 4.01683C0.94696 3.42296 1.21358 2.86722 1.5935 2.3918C1.97343 1.91637 2.45668 1.53375 3.00657 1.27298C3.55646 1.01222 4.15854 0.880162 4.76709 0.886842C5.84401 0.870688 6.91555 0.89761 7.99247 0.89761ZM7.83633 2.27069C6.7594 2.27069 5.68248 2.24376 4.60556 2.27069C2.78017 2.32453 1.60094 3.70838 1.99401 5.46376C2.18248 6.28761 2.33863 7.12223 2.58633 7.92453C3.90556 12.2322 6.14555 16.0015 9.80171 18.7476C13.4579 21.4938 17.1732 22.3338 21.1794 20.1961C23.4062 18.9795 25.1671 17.0595 26.1871 14.7361C27.0726 13.0194 27.2653 11.0284 26.7256 9.17376C26.3971 8.04299 26.0902 7.19761 25.1102 6.68069C19.7256 3.8753 13.9856 2.22761 7.83633 2.27069V2.27069ZM45.3348 21.3322C46.6702 21.4776 48.0002 20.9876 49.3302 20.4061C52.7656 18.9038 55.1186 16.233 56.9763 13.1153C58.4948 10.5792 59.7548 7.90838 59.6686 4.823C59.6255 3.073 58.9256 2.303 57.1271 2.28146C53.2879 2.22761 49.4755 2.17915 45.7009 3.25069C42.6068 4.09203 39.6023 5.2336 36.7302 6.65915C36.1271 6.96607 35.4594 7.33761 35.3248 8.02146C34.964 9.86838 34.4363 11.6291 35.1848 13.6215C36.5525 17.2938 40.6179 21.5207 45.3348 21.3322V21.3322Z" fill="#333333"/>
<path opacity="0.43" d="M2.97662 7.92517C4.83352 15.1813 12.1884 23.8557 19.7178 19.6367C23.7177 17.5041 27.2715 10.4535 23.2329 6.74323C18.3846 4.05045 13.2114 2.47795 7.67948 2.51906C3.51479 2.11309 1.26032 3.12031 2.97662 7.92517Z" fill="#CCD8D6"/>
<path d="M28.9823 8.46686C30.1008 7.86305 31.2563 7.59177 32.5735 8.05849C32.8208 8.17497 33.0476 8.32131 33.2473 8.49312C33.5034 8.78653 33.7215 9.10348 33.8975 9.43821C34.0531 9.77719 34.1441 10.1358 34.167 10.5C33.9817 10.3658 33.7728 10.2404 33.6145 10.1295C33.3905 9.97376 33.1528 9.83332 32.9037 9.70949C32.3948 9.34416 31.7442 9.16056 31.0845 9.1961C30.611 9.17134 30.1365 9.22905 29.6892 9.36583C29.2419 9.50261 28.8308 9.71568 28.4803 9.99244C28.3051 10.1237 28.0525 10.3075 27.783 10.5146C27.783 10.4504 27.783 10.3891 27.783 10.325C27.7732 10.1156 27.7473 9.90709 27.7055 9.70074C28.0646 9.24128 28.4941 8.8262 28.9823 8.46686V8.46686Z" fill="#666666"/>
<path opacity="0.59" d="M3.78683 8.23147C2.19837 4.04224 3.67373 2.61532 6.89373 2.49685C2.45681 2.15224 0.103747 3.26685 1.96144 8.18301C3.71144 14.6122 9.81219 22.1076 16.7207 21.5907C10.5822 20.8261 5.37529 14.1169 3.78683 8.23147Z" fill="#808080"/>
</svg>
